<?xml version="1.0" encoding="UTF-8" standalone="no"?>
<!-- Created with Inkscape (http://www.inkscape.org/) -->

<svg
   width="128mm"
   height="128mm"
   viewBox="0 0 128 128"
   version="1.1"
   id="svg12527"
   inkscape:version="1.1 (c68e22c387, 2021-05-23)"
   sodipodi:docname="day.svg"
   xmlns:inkscape="http://www.inkscape.org/namespaces/inkscape"
   xmlns:sodipodi="http://sodipodi.sourceforge.net/DTD/sodipodi-0.dtd"
   xmlns="http://www.w3.org/2000/svg"
   xmlns:svg="http://www.w3.org/2000/svg">
  <sodipodi:namedview
     id="namedview12529"
     pagecolor="#ffffff"
     bordercolor="#666666"
     borderopacity="1.0"
     inkscape:pageshadow="2"
     inkscape:pageopacity="0.0"
     inkscape:pagecheckerboard="0"
     inkscape:document-units="mm"
     showgrid="false"
     fit-margin-top="3"
     fit-margin-left="2"
     fit-margin-right="0"
     fit-margin-bottom="3"
     lock-margins="true"
     inkscape:zoom="0.64096015"
     inkscape:cx="546.05579"
     inkscape:cy="355.71634"
     inkscape:window-width="1866"
     inkscape:window-height="1043"
     inkscape:window-x="0"
     inkscape:window-y="0"
     inkscape:window-maximized="1"
     inkscape:current-layer="layer1" />
  <defs
     id="defs12524" />
  <g
     inkscape:label="Layer 1"
     inkscape:groupmode="layer"
     id="layer1"
     transform="translate(-153.77108,-83.427441)">
    <path
       id="path5163"
       style="fill-opacity:1;stroke:none;stroke-width:0.152111"
       d="m 281.77108,122.8906 c -9.95297,2.70376 -19.7932,4.29795 -30.04455,5.44535 l -8.88592,19.81532 -8.88592,-19.81532 h -9.54679 l 14.09761,28.44805 -0.33014,15.11505 h 9.33077 l -0.33044,-15.11505 6.93347,-12.3708 c 5.78396,-0.36233 11.92705,-2.04465 16.78203,-3.36582 z m -2.98318,2.03196 -4.44624,7.3488 c -8.32436,2.68442 -16.3282,4.08353 -25.03456,4.93722 l 3.50037,-7.73345 c 8.81547,-0.71903 17.40046,-2.44504 25.98043,-4.55257 z m -73.28922,3.41339 -14.62372,43.5628 h 8.68873 l 3.18544,-9.68062 h 15.46266 l 3.18575,9.68062 h 8.68843 l -14.62374,-43.5628 z m -37.30818,0.0623 c -3.58447,-0.0315 -7.68419,0.0588 -12.41942,0.0588 v 43.44167 c 12.6273,0 20.73542,0.64273 26.60456,-2.09755 5.86913,-2.74028 8.88741,-8.86364 8.88741,-19.62328 0,-10.75965 -3.01828,-16.88301 -8.88741,-19.62329 -3.66821,-1.71268 -8.21102,-2.10383 -14.18514,-2.15634 z m 1.15892,6.8962 c 7.25648,-0.0316 13.52366,1.16996 13.52366,14.88343 0,16.87812 -9.49353,14.80336 -18.64064,14.80336 v -29.60673 c 1.71508,0 3.4424,-0.0728 5.11698,-0.0801 z m 41.13118,1.66327 5.36974,18.02236 h -10.73976 z"
       sodipodi:nodetypes="ccccccccccccccccccccccccccsccsssscsccccccc" />
  </g>
</svg>
