<?xml version="1.0" encoding="UTF-8" standalone="no"?>
<!-- Generator: Adobe Illustrator 16.0.0, SVG Export Plug-In . SVG Version: 6.00 Build 0)  -->

<svg
   version="1.1"
   id="Layer_1"
   x="0px"
   y="0px"
   width="128px"
   height="128px"
   viewBox="0 0 128 128"
   enable-background="new 0 0 128 128"
   xml:space="preserve"
   sodipodi:docname="demo.svg"
   inkscape:version="1.1 (c68e22c387, 2021-05-23)"
   xmlns:inkscape="http://www.inkscape.org/namespaces/inkscape"
   xmlns:sodipodi="http://sodipodi.sourceforge.net/DTD/sodipodi-0.dtd"
   xmlns="http://www.w3.org/2000/svg"
   xmlns:svg="http://www.w3.org/2000/svg"><defs
   id="defs892">
	
	
	
	
	

		
	
		
	
		
	
		
	
		
	
			
			
			
			
		
				
				
				
			
				
				
			
				
			
				
			
					
						
				
					
				
					
						
				
					
				
					
				</defs><sodipodi:namedview
   id="namedview890"
   pagecolor="#ffffff"
   bordercolor="#666666"
   borderopacity="1.0"
   inkscape:pageshadow="2"
   inkscape:pageopacity="0.0"
   inkscape:pagecheckerboard="0"
   showgrid="false"
   inkscape:zoom="2.2397025"
   inkscape:cx="-27.682248"
   inkscape:cy="37.504981"
   inkscape:window-width="1866"
   inkscape:window-height="1043"
   inkscape:window-x="0"
   inkscape:window-y="0"
   inkscape:window-maximized="1"
   inkscape:current-layer="Layer_1" />
<path
   id="path835"
   d="m 63.998047,15.109375 c -12.161973,0 -22.283523,8.939695 -24.240235,20.632813 H 19.494141 c -2.902,-10e-7 -5.263672,2.373062 -5.263672,5.289062 V 99.761719 H 0 v 8.900391 l 0.796875,0.60156 c 0.493,0.371 4.9276719,3.62695 8.6386719,3.62695 H 118.5625 c 3.71,0 8.14664,-3.25595 8.64062,-3.62695 L 128,108.66211 V 99.761719 H 113.76562 V 41.03125 c 0,-2.916 -2.36167,-5.289062 -5.26367,-5.289062 H 88.234375 C 86.27785,24.048513 76.158225,15.109375 63.998047,15.109375 Z m 0,4 c 11.351,0 20.585937,9.311906 20.585937,20.753906 -0.002,0.1 -0.295297,10.256516 -8.654296,21.103516 -1.1,1.472 -1.841797,3.514844 -2.216797,6.089844 h -2.740235 l 3.169922,-22.796875 -3.960937,-0.550782 -0.09961,0.712891 -0.71875,0.525391 -2.6875,-1.96875 -2.683593,1.966796 -2.685547,-1.966796 -2.681641,1.966796 -0.707031,-0.519531 -0.09961,-0.720703 -3.960937,0.552734 3.173828,22.798829 h -2.775391 c -0.362,-2.578 -1.098937,-4.625188 -2.210937,-6.117188 -8.344,-10.821 -8.634766,-20.976219 -8.634766,-21.074219 0,-11.444 9.235891,-20.755859 20.587891,-20.755859 z M 19.494141,39.742188 h 19.919921 c -2e-4,0.04124 -0.0039,0.08176 -0.0039,0.123046 0,0.112 0.257313,11.576188 9.445313,23.492188 0.856,1.148 1.424609,3.220984 1.599609,5.833984 l 0.125,1.865235 h 4.773438 v 3.466797 h -4.996094 v 4 h 27.283203 v -4 H 59.353516 v -3.466797 h 18.013672 l 0.136718,-1.853516 c 0.189,-2.614 0.767375,-4.688359 1.609375,-5.818359 9.211,-11.948 9.46875,-23.407532 9.46875,-23.519532 0,-0.04129 -0.0037,-0.0818 -0.0039,-0.123046 h 19.923825 c 0.698,-10e-7 1.26367,0.578062 1.26367,1.289062 V 99.761719 H 18.232422 V 41.03125 c 0,-0.711 0.565719,-1.289062 1.261719,-1.289062 z m 2.552734,3.582031 V 95.806641 H 105.94922 V 43.324219 H 91.726562 v 4 H 101.94922 V 91.806641 H 26.046875 V 47.324219 h 10.439453 v -4 z m 39.261719,4.613281 2.683594,1.96875 2.683593,-1.96875 2.648438,1.939453 -2.388672,17.179688 h -5.865235 l -2.394531,-17.1875 z m -5.837891,33.800781 v 4 h 17.056641 v -4 z M 4,103.76172 h 120.00195 v 2.85937 c -1.387,0.911 -3.80645,2.26954 -5.43945,2.26953 H 9.4355469 C 7.9245469,108.89064 5.574,107.664 4,106.625 Z" />
</svg>
