<?xml version="1.0" encoding="UTF-8" standalone="no"?>
<!-- Generator: Adobe Illustrator 16.0.0, SVG Export Plug-In . SVG Version: 6.00 Build 0)  -->

<svg
   version="1.1"
   id="Layer_1"
   x="0px"
   y="0px"
   width="128px"
   height="128px"
   viewBox="0 0 128 128"
   enable-background="new 0 0 128 128"
   xml:space="preserve"
   sodipodi:docname="forum.svg"
   inkscape:version="1.1 (c68e22c387, 2021-05-23)"
   xmlns:inkscape="http://www.inkscape.org/namespaces/inkscape"
   xmlns:sodipodi="http://sodipodi.sourceforge.net/DTD/sodipodi-0.dtd"
   xmlns="http://www.w3.org/2000/svg"
   xmlns:svg="http://www.w3.org/2000/svg"><defs
   id="defs976">
	
	
	
	
	

		
	
		
	
		
	
		
	
		
	</defs><sodipodi:namedview
   id="namedview974"
   pagecolor="#ffffff"
   bordercolor="#666666"
   borderopacity="1.0"
   inkscape:pageshadow="2"
   inkscape:pageopacity="0.0"
   inkscape:pagecheckerboard="0"
   showgrid="false"
   inkscape:zoom="6.8203125"
   inkscape:cx="63.92669"
   inkscape:cy="64.07331"
   inkscape:window-width="1866"
   inkscape:window-height="1043"
   inkscape:window-x="0"
   inkscape:window-y="0"
   inkscape:window-maximized="1"
   inkscape:current-layer="Layer_1" />
<path
   id="polygon951"
   d="M 0 10.035156 L 0 82.970703 L 16.816406 82.970703 L 16.816406 107.39844 L 41.630859 82.970703 L 110.15234 82.970703 L 110.15234 10.035156 L 0 10.035156 z M 4 14.035156 L 106.15234 14.035156 L 106.15234 78.970703 L 39.992188 78.970703 L 20.816406 97.847656 L 20.816406 78.970703 L 4 78.970703 L 4 14.035156 z M 22.738281 31.119141 L 22.738281 35.119141 L 87.417969 35.119141 L 87.417969 31.119141 L 22.738281 31.119141 z M 115.69141 32.556641 L 115.69141 36.556641 L 124 36.556641 L 124 94.417969 L 113.99609 94.417969 L 113.99609 107.69922 L 101.79492 94.417969 L 51.863281 94.417969 L 51.863281 88.511719 L 47.863281 88.511719 L 47.863281 98.417969 L 100.03711 98.417969 L 117.99609 117.96484 L 117.99609 98.417969 L 128 98.417969 L 128 32.556641 L 115.69141 32.556641 z M 22.738281 43.816406 L 22.738281 47.816406 L 87.417969 47.816406 L 87.417969 43.816406 L 22.738281 43.816406 z M 22.738281 56.515625 L 22.738281 60.515625 L 87.417969 60.515625 L 87.417969 56.515625 L 22.738281 56.515625 z " />
</svg>
