<?xml version="1.0" encoding="UTF-8" standalone="no"?>
<svg
		version="1.1"
		id="svg1774"
		sodipodi:docname="joomla-translation-team.svg"
		width="134"
		height="123"
		viewBox="0 0 134 123"
		inkscape:version="1.1 (c68e22c387, 2021-05-23)"
		xmlns:inkscape="http://www.inkscape.org/namespaces/inkscape"
		xmlns:sodipodi="http://sodipodi.sourceforge.net/DTD/sodipodi-0.dtd"
		xmlns="http://www.w3.org/2000/svg"
		xmlns:svg="http://www.w3.org/2000/svg">
  <defs
		id="defs1778" />
  <sodipodi:namedview
		id="namedview1776"
		pagecolor="#ffffff"
		bordercolor="#666666"
		borderopacity="1.0"
		inkscape:pageshadow="2"
		inkscape:pageopacity="0.0"
		inkscape:pagecheckerboard="0"
		showgrid="false"
		lock-margins="false"
		fit-margin-top="2.5"
		fit-margin-left="2.5"
		fit-margin-right="2.5"
		fit-margin-bottom="3"
		inkscape:zoom="3.1958436"
		inkscape:cx="55.071531"
		inkscape:cy="1.4080789"
		inkscape:window-width="1866"
		inkscape:window-height="1048"
		inkscape:window-x="54"
		inkscape:window-y="0"
		inkscape:window-maximized="1"
		inkscape:current-layer="svg1774" />
  <path
		style="fill:#76b82a;stroke-width:0.995161"
		d="m 2.5,2.5 v 118 H 132 V 2.5 Z"
		id="path1758" />
  <path
		style="fill:#ffffff;stroke-width:0.995161"
		d="M 3.0242715,3.0236347 H 131.47671 V 93.636337 H 3.0242715 Z"
		id="path1760" />
  <path
		style="fill:#414248;stroke-width:0.995161"
		d="m 35.868327,63.911603 v 8.454809 c 0,0.746628 0.04277,1.445472 -0.621763,1.971099 -0.631712,0.501733 -1.684235,0.669973 -2.810374,0.676943 -1.728005,0.009 -3.55251,-0.396211 -3.55251,-0.396211 l -0.409866,1.089079 c 0,0 2.558684,0.534585 4.42099,0.576396 1.576792,0.03385 2.926766,-0.326523 3.697753,-1.199579 0.620771,-0.712782 0.798842,-1.510181 0.775962,-2.886962 v -8.285574 h -1.500192 m 11.707067,10.59813 c -0.882405,0.502728 -1.952836,0.756582 -3.181442,0.756582 -1.257453,0 -2.337832,-0.248876 -3.2083,-0.73966 -1.058492,-0.59332 -1.571819,-1.428547 -1.571819,-2.553465 0,-1.108991 0.529245,-1.968111 1.571819,-2.55247 0.870468,-0.49178 1.950847,-0.740656 3.2083,-0.740656 1.24552,0 2.321916,0.248876 3.198354,0.740656 1.032627,0.589336 1.555903,1.447461 1.555903,2.55247 0,1.093063 -0.52825,1.947202 -1.572815,2.536543 m 0.881413,-5.930214 c -1.144045,-0.625176 -2.510931,-0.939755 -4.062855,-0.939755 -1.541973,0 -2.909853,0.314579 -4.062852,0.938759 -1.456421,0.792422 -2.194578,1.936255 -2.194578,3.398648 0,1.463392 0.738157,2.603242 2.194578,3.389689 1.153992,0.624181 2.51889,0.939756 4.062852,0.939756 1.547944,0 2.910852,-0.312587 4.053903,-0.93179 1.444481,-0.786449 2.177664,-1.929286 2.177664,-3.397655 0,-1.466376 -0.7302,-2.610209 -2.168712,-3.397652 m 12.387527,5.930214 c -0.882409,0.502728 -1.951843,0.756582 -3.182437,0.756582 -1.257456,0 -2.335842,-0.248876 -3.207307,-0.73966 -1.058489,-0.59332 -1.571819,-1.428547 -1.571819,-2.553465 0,-1.108991 0.528251,-1.968111 1.571819,-2.55247 0.871465,-0.49178 1.950847,-0.740656 3.207307,-0.740656 1.246512,0 2.321916,0.248876 3.199348,0.740656 1.032625,0.589336 1.556897,1.447461 1.556897,2.55247 0,1.093063 -0.53024,1.947202 -1.573808,2.536543 m 0.882407,-5.930214 c -1.144046,-0.625176 -2.511927,-0.939755 -4.064844,-0.939755 -1.541974,0 -2.907865,0.314579 -4.06186,0.938759 -1.456418,0.792422 -2.194577,1.936255 -2.194577,3.398648 0,1.463392 0.739153,2.603242 2.194577,3.389689 1.153995,0.624181 2.519886,0.939756 4.06186,0.939756 1.547944,0 2.911844,-0.312587 4.053902,-0.93179 1.445476,-0.786449 2.17866,-1.929286 2.17866,-3.397655 0,-1.467371 -0.7302,-2.610209 -2.168712,-3.397652 m 18.305722,-0.211047 c -0.815752,-0.483815 -1.860318,-0.728708 -3.103845,-0.728708 -1.581767,0 -2.865088,0.497753 -3.823101,1.46339 -0.925184,-0.965637 -2.202538,-1.46339 -3.810169,-1.46339 -1.297248,0 -2.354745,0.272768 -3.167516,0.793415 v -0.673954 h -1.428563 v 8.401052 h 1.428563 v -5.749031 c 0.0955,-0.41413 0.370077,-0.795408 0.810781,-1.109988 0.586945,-0.412137 1.359921,-0.622189 2.302019,-0.622189 0.831671,0 1.547944,0.172222 2.12693,0.509698 0.691401,0.39422 1.027652,0.948713 1.027652,1.692355 v 5.279155 h 1.404688 v -5.279155 c 0,-0.744635 0.334262,-1.302118 1.022678,-1.701316 0.586945,-0.331501 1.31018,-0.500737 2.151799,-0.500737 0.839631,0 1.561873,0.172222 2.143843,0.509698 0.68742,0.39422 1.021682,0.948713 1.021682,1.692355 v 5.279155 h 1.428564 v -5.08304 c 0,-1.195599 -0.517306,-2.108476 -1.536005,-2.709761 m 2.685025,7.793797 h 1.428565 V 63.910609 h -1.42757 z m 17.352686,-2.763517 h 1.42759 v -9.487147 h -1.42759 z M 86.775369,71.97319 c 0,-1.113968 0.527256,-1.975078 1.568835,-2.561431 0.872459,-0.484809 1.95781,-0.731695 3.223224,-0.731695 1.564856,0 2.788486,0.382273 3.63906,1.136865 0.7491,0.664995 1.129123,1.532082 1.129123,2.575369 V 73.3878 c -0.599879,0.662008 -1.475321,1.184649 -2.604445,1.549999 a 6.9378899,6.9426401 0 0 1 -2.163738,0.328516 c -1.2873,0 -2.375637,-0.240912 -3.232177,-0.714772 -1.048543,-0.587346 -1.559882,-1.431533 -1.559882,-2.578353 m 9.560242,-4.212971 v 1.438504 c -1.223632,-1.025369 -2.837234,-1.558959 -4.81494,-1.558959 -1.60067,0 -2.976507,0.305618 -4.088718,0.905909 -1.415633,0.770518 -2.131907,1.926298 -2.131907,3.431498 0,1.485291 0.733185,2.632111 2.182642,3.406612 1.139071,0.61124 2.513914,0.922833 4.088718,0.922833 0.788894,0 1.553912,-0.09456 2.270186,-0.278742 1.009743,-0.26082 1.843404,-0.653048 2.494019,-1.160755 v 1.294154 h 1.428564 v -8.402048 h -1.428564 m 4.455809,6.829152 c -0.994819,0 -1.142053,0.515669 -1.142053,0.822285 0,0.316571 0.148231,0.847173 1.142053,0.847173 0.98588,0 1.13411,-0.530602 1.13411,-0.846176 0,-0.308608 -0.14823,-0.824279 -1.13411,-0.824279 m 3.77735,-9.693213 c 0.35515,0 0.35118,0.504719 -0.008,0.504719 h -0.42182 v -0.504719 z m 0.14623,0.718752 c 0.5969,-0.101541 0.53423,-0.990525 -0.14623,-0.990525 h -0.71727 v 1.566922 h 0.28652 v -0.544542 h 0.27257 l 0.43474,0.544542 h 0.31635 v -0.05873 L 104.715,65.607945 Z m -1.47729,-0.192132 c 0,0.69287 0.42974,1.24438 1.18879,1.24438 0.76005,0 1.19479,-0.55151 1.19479,-1.240398 0,-0.693866 -0.43474,-1.244379 -1.19379,-1.244379 -0.76005,0 -1.18979,0.550513 -1.18979,1.248361 z m 2.69595,0.008 c 0,0.826267 -0.53719,1.524115 -1.50716,1.524115 -0.96398,0 -1.50715,-0.696851 -1.50715,-1.524115 0,-0.831245 0.54317,-1.525111 1.50715,-1.525111 0.96897,0 1.50815,0.693866 1.50815,1.525111"
		id="path1762" />
  <path
		style="fill:#76b82a;stroke-width:0.995161"
		d="m 54.88336,37.66516 -0.743134,-0.742646 a 8.5624347,8.568297 0 0 1 -2.146825,-8.524496 5.1730754,5.1756218 0 0 1 1.145041,-10.220831 5.1750651,5.1766173 0 0 1 5.103436,4.335416 8.5624347,8.568297 0 0 1 8.019263,2.28269 l 0.298447,0.298649 -3.81813,3.81477 -0.29546,-0.296661 a 3.1724881,3.1736645 0 0 0 -4.484658,9.97e-4 3.178457,3.1796376 0 0 0 -0.007,4.492705 l 0.746114,0.745634 3.817134,3.812777 4.036988,4.038757 -3.813155,3.816759 -4.040967,-4.037763 z"
		id="path1764" />
  <path
		style="fill:#f7a833;stroke-width:0.995161"
		d="m 59.152141,33.398432 4.039973,-4.038757 3.817133,-3.814768 0.746116,-0.742646 a 8.5634295,8.566306 0 0 1 8.47887,-2.166216 5.1730754,5.1756218 0 0 1 10.295415,0.714771 5.1730754,5.1766173 0 0 1 -4.490629,5.128833 8.5693983,8.572279 0 0 1 -2.175676,8.435896 l -0.296456,0.298651 -3.814148,-3.818751 0.294469,-0.295663 a 3.1675138,3.168687 0 1 0 -4.479687,-4.479767 l -0.744126,0.74364 -3.817134,3.815766 -4.036988,4.034775 z"
		id="path1766" />
  <path
		style="fill:#e53312;stroke-width:0.995161"
		d="m 76.335706,52.660425 a 8.5634295,8.5673016 0 0 1 -8.581338,-2.130377 l -0.293472,-0.291684 3.812157,-3.81875 0.293473,0.293674 a 3.1744776,3.1756556 0 0 0 4.48665,0 3.1675138,3.168687 0 0 0 -0.006,-4.481756 l -0.746116,-0.746627 -3.814148,-3.820741 -4.030024,-4.03378 3.816135,-3.81477 4.027042,4.031789 3.813153,3.816761 0.749103,0.7526 a 8.5624347,8.5653106 0 0 1 2.270183,8.090457 5.1710858,5.1726353 0 0 1 -0.727216,10.295494 5.1720806,5.1736307 0 0 1 -5.069612,-4.141294"
		id="path1768" />
  <path
		style="fill:#4f8fcd;stroke-width:0.995161"
		d="m 74.848446,41.936864 -4.025051,4.031788 -3.814148,3.818751 -0.748106,0.747621 a 8.5614399,8.5673016 0 0 1 -8.130683,2.254818 5.1730754,5.1756218 0 0 1 -10.212845,-1.159762 5.1730754,5.1766173 0 0 1 3.978293,-5.035256 8.5624347,8.5653106 0 0 1 2.243327,-8.184033 l 0.291482,-0.292679 3.817134,3.815765 -0.293472,0.293675 a 3.1704983,3.1716736 0 0 0 0,4.486733 3.1774621,3.178642 0 0 0 4.490625,0.005 l 0.746117,-0.747625 3.815142,-3.81676 4.029031,-4.036767 z"
		id="path1770" />
  <path
		style="fill:#ffffff;stroke-width:0.995161"
		d="m 45.543969,102.37985 c -0.915237,0 -1.652401,0.21502 -2.193584,0.65601 h -0.002 c -0.537204,0.44005 -0.81078,1.05823 -0.81078,1.81383 0,0.65105 0.196975,1.18266 0.594905,1.56095 0.396934,0.37829 1.019692,0.64011 1.860316,0.80634 l 0.673496,0.13341 c 0.550136,0.11051 0.933142,0.27775 1.149019,0.47783 0.219855,0.20012 0.330282,0.47089 0.330282,0.84619 0,0.42806 -0.148228,0.73171 -0.460603,0.95867 -0.312374,0.22599 -0.771984,0.34742 -1.387778,0.34742 a 4.3374248,4.3403946 0 0 1 -1.235569,-0.18615 6.3479606,6.3523067 0 0 1 -1.294263,-0.56048 l -0.196975,-0.1095 v 1.45941 l 0.08755,0.0309 c 0.473534,0.17423 0.931153,0.30564 1.37385,0.39422 0.446674,0.0897 0.868478,0.13439 1.265413,0.13439 1.044563,0 1.853354,-0.20707 2.416423,-0.6421 0.567049,-0.43402 0.852563,-1.08509 0.852563,-1.90837 0,-0.69187 -0.210903,-1.2633 -0.631711,-1.6844 -0.417827,-0.42409 -1.051529,-0.70978 -1.893147,-0.87106 h -0.002 l -0.668522,-0.13839 c -0.595898,-0.1105 -0.992832,-0.26081 -1.177869,-0.41411 l -0.002,-0.002 c -0.182052,-0.15929 -0.275566,-0.38626 -0.275566,-0.72075 0,-0.39821 0.139276,-0.67893 0.433742,-0.89097 0.298447,-0.21104 0.736168,-0.32852 1.321124,-0.32852 0.335256,0 0.682448,0.0478 1.045558,0.14436 0.364104,0.0966 0.754075,0.24289 1.167922,0.441 l 0.189016,0.0916 v -1.38375 l -0.08953,-0.0319 a 8.5952638,8.6011485 0 0 0 -1.241537,-0.31657 6.9677347,6.9725052 0 0 0 -1.197766,-0.10752 z m 31.118039,0 c -1.180856,0 -2.145834,0.40316 -2.861111,1.20158 -0.712292,0.79639 -1.064459,1.86456 -1.064459,3.1836 0,1.31805 0.352167,2.38721 1.064459,3.18263 0.715277,0.7954 1.680255,1.19559 2.861111,1.19559 1.177868,0 2.140856,-0.40019 2.853149,-1.19559 0.711297,-0.79939 1.063464,-1.86857 1.063464,-3.18263 0,-1.31904 -0.351172,-2.38721 -1.063464,-3.1836 -0.711299,-0.79842 -1.675281,-1.20158 -2.853149,-1.20158 z m -64.935032,0.14833 v 1.19758 h 2.907866 v 7.25821 h 1.37584 v -7.25722 h 2.907865 v -1.19857 z m 7.931719,0 v 8.45579 h 1.369869 v -3.46135 h 1.077394 c 0.420808,0 0.736169,0.0857 0.960003,0.24389 v 0.002 c 0.221845,0.15531 0.482488,0.50274 0.7491,1.04228 l 1.082367,2.17419 h 2.855141 l 0.746116,-2.10249 h 3.504758 l 0.746117,2.10249 h 1.435529 l -3.22223,-8.45679 h -1.435528 l -0.03383,0.0857 -3.157566,8.27364 -1.172895,-2.33148 c -0.228809,-0.46787 -0.460602,-0.83623 -0.697371,-1.11198 -0.179066,-0.21303 -0.378032,-0.32353 -0.576996,-0.42807 0.374053,-0.14733 0.719258,-0.32851 0.935132,-0.63513 0.258655,-0.36634 0.385992,-0.82327 0.385992,-1.35985 0,-0.81631 -0.244726,-1.45444 -0.738159,-1.87454 -0.494425,-0.4201 -1.224623,-0.61719 -2.178659,-0.61719 z m 15.226747,0 v 8.45579 h 1.339031 v -6.45484 l 3.421194,6.45484 h 1.70214 v -8.45579 h -1.33903 v 6.45485 l -3.420197,-6.45485 z m 14.864634,0 v 8.45579 h 5.359108 v -1.19559 H 51.12293 v -7.2602 z m 8.818105,0 -0.02985,0.0857 -3.196363,8.37019 h 1.45244 l 0.746118,-2.10149 h 3.505752 l 0.747111,2.10149 h 1.434539 l -3.221234,-8.45582 z m 3.459991,0 v 1.19758 h 2.90488 v 7.25821 h 1.378824 v -7.25722 h 2.907866 v -1.19857 z m 7.931717,0 v 8.45579 h 1.370866 v -8.45579 z m 12.023421,0 v 8.45579 h 1.339032 v -6.45384 l 3.419204,6.45384 h 1.705125 v -8.45579 h -1.340025 v 6.45485 l -3.4202,-6.45485 z m 10.708267,0 v 1.19758 h 2.907865 v 7.25821 h 1.375839 v -7.25722 h 2.907865 v -1.19857 z m 7.931723,0 v 8.45579 h 5.53918 v -1.19559 h -4.1683 v -2.70478 h 3.89969 v -1.1956 h -3.89969 v -2.16224 h 4.07179 v -1.19758 z m 9.1852,0 -0.0329,0.0857 -3.19538,8.37019 h 1.45344 l 0.74513,-2.10149 h 3.50575 l 0.74611,2.10149 h 1.43753 l -3.22323,-8.45579 z m 5.46555,0 v 8.45579 h 1.33903 v -6.60117 l 1.89015,5.02629 h 1.29329 l 1.89016,-5.02629 v 6.60117 h 1.34498 v -8.45579 h -1.87322 l -2.00955,5.3329 -2.00059,-5.3329 z m -38.612042,1.0154 c 0.771981,0 1.359922,0.27875 1.8056,0.84916 0.448666,0.57044 0.680458,1.35688 0.680458,2.37229 0,1.01143 -0.231792,1.7949 -0.680458,2.36631 -0.445678,0.57044 -1.034615,0.84916 -1.8056,0.84916 -0.771984,0 -1.362909,-0.27772 -1.815553,-0.84916 -0.448664,-0.57141 -0.680458,-1.35488 -0.680458,-2.36631 0,-1.01541 0.232789,-1.79987 0.680458,-2.3703 0.45364,-0.5714 1.044564,-0.85214 1.815553,-0.85214 z m -55.633444,0.15929 h 1.263425 c 0.514322,0 0.879423,0.11748 1.118178,0.33348 l 0.002,0.002 c 0.241742,0.21303 0.365098,0.52762 0.365098,0.98256 0,0.45395 -0.123356,0.7725 -0.36709,0.99351 -0.238755,0.21603 -0.603856,0.3345 -1.118178,0.3345 h -1.263424 z m 9.215039,0.42906 1.31814,3.56588 h -2.633295 z m 29.041844,0 1.318139,3.56588 h -2.631303 z m 51.238333,0.002 1.32013,3.56389 h -2.63331 z"
		id="path1772" />
</svg>
