<?xml version="1.0" encoding="UTF-8" standalone="no"?>
<!-- Created with Inkscape (http://www.inkscape.org/) -->

<svg
		width="210mm"
		height="297mm"
		viewBox="0 0 210 297"
		version="1.1"
		id="svg2682"
		inkscape:version="1.1 (c68e22c387, 2021-05-23)"
		sodipodi:docname="pattern.svg"
		xmlns:inkscape="http://www.inkscape.org/namespaces/inkscape"
		xmlns:sodipodi="http://sodipodi.sourceforge.net/DTD/sodipodi-0.dtd"
		xmlns="http://www.w3.org/2000/svg"
		xmlns:svg="http://www.w3.org/2000/svg">
  <sodipodi:namedview
		id="namedview2684"
		pagecolor="#ffffff"
		bordercolor="#666666"
		borderopacity="1.0"
		inkscape:pageshadow="2"
		inkscape:pageopacity="0.0"
		inkscape:pagecheckerboard="0"
		inkscape:document-units="mm"
		showgrid="false"
		inkscape:zoom="1.711862"
		inkscape:cx="550.86215"
		inkscape:cy="396.05996"
		inkscape:window-width="1866"
		inkscape:window-height="1043"
		inkscape:window-x="54"
		inkscape:window-y="0"
		inkscape:window-maximized="1"
		inkscape:current-layer="layer1" />
  <defs
		id="defs2679" />
  <g
		inkscape:label="Layer 1"
		inkscape:groupmode="layer"
		id="layer1">
		<path
				style="fill:#000000;stroke-width:0.264583"
				d="m 137.74758,81.232 c 0.16048,-0.10691 0.35678,-0.93002 0.43621,-1.82913 0.18803,-2.12834 1.26014,-4.11996 2.84387,-5.283 0.65484,-0.48089 1.35236,-0.8773 1.55004,-0.88091 0.25367,-0.005 0.30894,-0.20762 0.18787,-0.69 -0.18092,-0.72084 -1.29487,-2.61462 -1.67682,-2.85068 -0.12372,-0.0765 -0.91923,0.21119 -1.7678,0.63922 -2.16214,1.09061 -4.22506,1.08668 -6.39194,-0.0122 -0.85726,-0.43472 -1.5803,-0.79191 -1.60677,-0.79375 -0.15227,-0.0106 -1.21421,1.69116 -1.53616,2.46169 -0.37949,0.90825 -0.37949,0.90825 0.89167,1.69844 2.20609,1.37138 3.47074,3.61829 3.47074,6.16648 0,0.76652 0.13074,1.32036 0.33073,1.40105 0.51799,0.20901 2.94406,0.18878 3.26836,-0.0273 z"
				id="path3678" />
		<path
				style="fill:#000000;stroke-width:0.264583"
				d="m 119.44247,81.2739 c 0.30065,-0.11537 0.41852,-0.51584 0.41852,-1.42194 0,-2.51246 1.41064,-4.97009 3.58371,-6.24359 1.24848,-0.73166 1.25699,-0.81523 0.27606,-2.71213 -0.70492,-1.36316 -1.00632,-1.44678 -2.40242,-0.66649 -0.93786,0.52419 -1.74572,0.73455 -3.14559,0.8191 -1.69642,0.10247 -2.03985,0.0341 -3.45536,-0.6879 -0.86445,-0.44092 -1.67294,-0.73912 -1.79666,-0.66266 -0.37025,0.22883 -1.49425,2.12136 -1.65378,2.78454 -0.12683,0.52721 0.0467,0.72418 1.18901,1.34981 2.06238,1.12953 3.43133,3.59686 3.4348,6.19075 8e-4,0.63314 0.14227,1.15923 0.33221,1.23588 0.47835,0.19302 2.72799,0.20324 3.2195,0.0146 z"
				id="path3676" />
		<path
				style="fill:#000000;stroke-width:0.264583"
				d="m 128.48893,86.56956 c 0.4835,-0.12978 0.56108,-0.35648 0.58006,-1.69487 0.0154,-1.08714 0.21638,-1.92881 0.67807,-2.83992 0.69015,-1.36195 2.36931,-3.06889 3.31385,-3.36867 0.69553,-0.22075 0.70393,-0.68339 0.0352,-1.93806 -0.92798,-1.74109 -1.28039,-2.07372 -1.79902,-1.69808 -1.26974,0.91965 -2.37868,1.23988 -4.30341,1.24269 -1.64712,0.002 -2.23196,-0.1198 -3.35043,-0.70009 -1.35501,-0.703 -1.35501,-0.703 -1.87623,-0.13229 -0.63753,0.69806 -1.37687,2.12447 -1.37687,2.65641 0,0.2157 0.25128,0.47194 0.55841,0.56942 0.94503,0.29994 2.62384,2.007 3.31484,3.37062 0.43486,0.85814 0.67403,1.80357 0.70705,2.79491 0.0275,0.82396 0.16897,1.58558 0.31449,1.69249 0.3128,0.22981 2.40649,0.2595 3.20398,0.0454 z"
				id="path3668" />
		<path
				style="fill:#000000;stroke-width:0.264583"
				d="m 137.74758,91.81585 c 0.16048,-0.10692 0.35678,-0.93002 0.43621,-1.82913 0.0956,-1.08196 0.39767,-2.10002 0.89335,-3.01076 0.73918,-1.35811 2.7191,-3.15971 3.47246,-3.15971 0.28455,0 0.34193,-0.18159 0.21597,-0.68344 -0.18092,-0.72084 -1.29487,-2.61462 -1.67682,-2.85068 -0.12372,-0.0765 -0.93221,0.22174 -1.79666,0.66266 -1.41551,0.722 -1.75894,0.79037 -3.45536,0.6879 -1.39835,-0.0845 -2.20786,-0.29499 -3.14217,-0.81719 -0.6922,-0.38688 -1.29498,-0.70341 -1.3395,-0.70341 -0.18441,0 -1.21661,1.6217 -1.56898,2.46504 -0.37949,0.90824 -0.37949,0.90824 0.89167,1.69844 2.20609,1.37139 3.47074,3.61829 3.47074,6.16648 0,0.76652 0.13074,1.32036 0.33073,1.40106 0.51799,0.20901 2.94406,0.18877 3.26836,-0.0273 z"
				id="path3660" />
		<path
				style="fill:#000000;stroke-width:0.264583"
				d="m 119.44247,91.85775 c 0.30065,-0.11537 0.41852,-0.51584 0.41852,-1.42195 0,-2.51245 1.41064,-4.97008 3.58371,-6.24359 1.24848,-0.73165 1.25699,-0.81522 0.27606,-2.71212 -0.70435,-1.36206 -0.95733,-1.41559 -2.65149,-0.56104 -2.15709,1.08806 -4.22673,1.08881 -6.38074,0.002 -0.84857,-0.42803 -1.64408,-0.71568 -1.7678,-0.63922 -0.37025,0.22883 -1.49425,2.12136 -1.65378,2.78454 -0.12683,0.52721 0.0467,0.72418 1.18901,1.34981 2.06238,1.12953 3.43133,3.59686 3.4348,6.19075 8e-4,0.63314 0.14227,1.15923 0.33221,1.23588 0.47835,0.19302 2.72799,0.20324 3.2195,0.0146 z"
				id="path3658" />
		<path
				style="fill:#000000;stroke-width:0.264583"
				d="m 128.74722,97.105 c 0.15801,-0.10691 0.30293,-0.87524 0.32206,-1.70741 0.0236,-1.0277 0.24313,-1.9242 0.68436,-2.79491 0.68452,-1.35084 2.36601,-3.05695 3.30727,-3.35569 0.30713,-0.0975 0.55842,-0.35255 0.55842,-0.56683 0,-0.58102 -0.92537,-2.28355 -1.54646,-2.84524 -0.53134,-0.48052 -0.56035,-0.47984 -1.20631,0.0283 -1.70488,1.34106 -4.98992,1.44898 -7.31929,0.24046 -1.54853,-0.8034 -1.56806,-0.79447 -2.63391,1.20528 -0.66872,1.25467 -0.66032,1.7173 0.0352,1.93806 0.94126,0.29874 2.62276,2.00485 3.30728,3.35569 0.44122,0.87071 0.66074,1.76721 0.68436,2.79491 0.0191,0.83217 0.16405,1.6005 0.32205,1.70741 0.158,0.10692 0.94212,0.19439 1.74248,0.19439 0.80037,0 1.58448,-0.0875 1.74248,-0.19439 z"
				id="path3650" />
		<path
				style="fill:#000000;stroke-width:0.264583"
				d="m 137.74758,102.39669 c 0.16048,-0.10692 0.35678,-0.93002 0.43621,-1.82913 0.18803,-2.12834 1.26014,-4.11996 2.84387,-5.283 0.65484,-0.48089 1.35236,-0.8773 1.55004,-0.88091 0.25367,-0.005 0.30894,-0.20762 0.18787,-0.69 -0.18092,-0.72085 -1.29487,-2.61462 -1.67682,-2.85068 -0.12372,-0.0765 -0.91923,0.21119 -1.7678,0.63922 -2.16214,1.09061 -4.22506,1.08668 -6.39194,-0.0122 -0.85726,-0.43472 -1.5803,-0.79191 -1.60677,-0.79375 -0.15227,-0.0106 -1.21421,1.69116 -1.53616,2.46169 -0.37949,0.90825 -0.37949,0.90825 0.89167,1.69844 2.20609,1.37139 3.47074,3.61829 3.47074,6.16649 0,0.76651 0.13074,1.32035 0.33073,1.40105 0.51799,0.20901 2.94406,0.18878 3.26836,-0.0273 z"
				id="path3642" />
		<path
				style="fill:#000000;stroke-width:0.264583"
				d="m 119.44247,102.43859 c 0.30065,-0.11537 0.41852,-0.51584 0.41852,-1.42195 0,-2.51585 1.41068,-4.9701 3.5913,-6.24803 1.16003,-0.67983 1.16003,-0.67983 0.77583,-1.59935 -0.35608,-0.85221 -1.38819,-2.47633 -1.57369,-2.47633 -0.0445,0 -0.64731,0.31654 -1.33951,0.70342 -0.93431,0.52219 -1.74382,0.73272 -3.14217,0.81718 -1.69642,0.10247 -2.03985,0.0341 -3.45536,-0.6879 -0.86445,-0.44092 -1.67294,-0.73911 -1.79666,-0.66265 -0.36935,0.22827 -1.49393,2.12039 -1.65499,2.78453 -0.1265,0.52167 0.0185,0.69719 0.93631,1.13301 1.97494,0.93785 3.39685,3.21809 3.62618,5.81513 0.078,0.88366 0.27319,1.69413 0.43367,1.80104 0.35387,0.23574 2.59837,0.2653 3.18057,0.0419 z"
				id="path3640" />
		<path
				style="fill:#000000;stroke-width:0.264583"
				d="m 128.48893,107.73425 c 0.4835,-0.12978 0.56108,-0.35648 0.58006,-1.69487 0.0154,-1.08714 0.21638,-1.92881 0.67807,-2.83992 0.69015,-1.36195 2.36931,-3.06889 3.31385,-3.36867 0.30713,-0.0975 0.55842,-0.35255 0.55842,-0.56683 0,-0.58102 -0.92537,-2.28355 -1.54646,-2.84524 -0.53134,-0.48052 -0.56035,-0.47984 -1.20631,0.0283 -1.68514,1.32553 -4.99115,1.44834 -7.26276,0.26979 -1.31555,-0.68253 -1.31555,-0.68253 -1.83677,-0.11182 -0.63753,0.69806 -1.37687,2.12447 -1.37687,2.65641 0,0.2157 0.25128,0.47194 0.55841,0.56942 0.94503,0.29994 2.62384,2.00699 3.31484,3.37062 0.43486,0.85814 0.67403,1.80357 0.70705,2.79491 0.0275,0.82395 0.16897,1.58557 0.31449,1.69249 0.3128,0.22981 2.40649,0.2595 3.20398,0.0454 z"
				id="path3632" />
  </g>
</svg>
