<?xml version="1.0" encoding="UTF-8" standalone="no"?>
<!-- Created with Inkscape (http://www.inkscape.org/) -->

<svg
   width="128"
   height="128"
   viewBox="0 0 33.86667 33.86667"
   version="1.1"
   id="svg12826"
   inkscape:version="1.1 (c68e22c387, 2021-05-23)"
   sodipodi:docname="wiki.svg"
   xmlns:inkscape="http://www.inkscape.org/namespaces/inkscape"
   xmlns:sodipodi="http://sodipodi.sourceforge.net/DTD/sodipodi-0.dtd"
   xmlns="http://www.w3.org/2000/svg"
   xmlns:svg="http://www.w3.org/2000/svg">
  <sodipodi:namedview
     id="namedview12828"
     pagecolor="#ffffff"
     bordercolor="#666666"
     borderopacity="1.0"
     inkscape:pageshadow="2"
     inkscape:pageopacity="0.0"
     inkscape:pagecheckerboard="0"
     inkscape:document-units="mm"
     showgrid="false"
     showguides="true"
     inkscape:guide-bbox="true"
     inkscape:zoom="3.1994017"
     inkscape:cx="112.8336"
     inkscape:cy="82.202869"
     inkscape:window-width="1866"
     inkscape:window-height="1043"
     inkscape:window-x="0"
     inkscape:window-y="0"
     inkscape:window-maximized="1"
     inkscape:current-layer="layer1"
     lock-margins="true"
     fit-margin-top="1"
     fit-margin-left="1"
     fit-margin-right="1"
     fit-margin-bottom="1"
     units="px" />
  <defs
     id="defs12823">
    <filter
       style="color-interpolation-filters:sRGB"
       inkscape:label="Duochrome"
       id="filter12999"
       x="0"
       y="0"
       width="1"
       height="1">
      <feColorMatrix
         type="luminanceToAlpha"
         result="colormatrix1"
         id="feColorMatrix12979" />
      <feFlood
         flood-opacity="1"
         flood-color="rgb(0,0,0)"
         result="flood1"
         id="feFlood12981" />
      <feComposite
         in2="colormatrix1"
         operator="out"
         result="composite1"
         id="feComposite12983" />
      <feFlood
         flood-opacity="1"
         flood-color="rgb(0,0,0)"
         result="flood2"
         id="feFlood12985" />
      <feComposite
         in2="colormatrix1"
         result="composite2"
         operator="in"
         id="feComposite12987" />
      <feComposite
         in="composite2"
         in2="composite1"
         k2="1"
         k3="1"
         operator="arithmetic"
         result="composite3"
         id="feComposite12989"
         k1="0"
         k4="0" />
      <feColorMatrix
         in="composite3"
         type="matrix"
         values="2 -1 0 0 0 0 2 -1 0 0 -1 0 2 0 0 0 0 0 1 0 "
         result="colormatrix2"
         id="feColorMatrix12991" />
      <feComposite
         in="colormatrix2"
         in2="composite3"
         operator="arithmetic"
         k2="0"
         result="composite4"
         id="feComposite12993"
         k1="0"
         k3="0"
         k4="0" />
      <feBlend
         in="composite4"
         in2="composite3"
         mode="normal"
         result="blend"
         id="feBlend12995" />
      <feComposite
         in2="SourceGraphic"
         operator="in"
         id="feComposite12997" />
    </filter>
  </defs>
  <g
     inkscape:label="Layer 1"
     inkscape:groupmode="layer"
     id="layer1"
     transform="translate(-79.666851,-105.48142)">
    <path
       id="circle13729"
       style="fill:#000000;stroke:none;stroke-width:3.84151;stroke-linecap:round;stroke-linejoin:round;stroke-miterlimit:4;stroke-dasharray:none;stroke-opacity:1;paint-order:fill markers stroke"
       d="M 62.455078 26.863281 C 46.300584 27.24165 31.631252 33.749992 20.716797 44.175781 L 34.205078 57.664062 C 41.56016 50.903659 51.378791 46.41459 62.455078 45.9375 L 62.455078 26.863281 z M 65.558594 26.863281 L 65.558594 45.9375 C 76.634828 46.41459 86.451491 50.903659 93.806641 57.664062 L 107.29492 44.175781 C 96.380478 33.749992 81.713058 27.24165 65.558594 26.863281 z M 18.611328 46.287109 C 8.3085325 57.107216 1.8286427 71.621309 1.3808594 87.691406 L 20.439453 87.691406 C 20.439453 77.404175 24.803951 67.398518 32.080078 59.755859 L 18.611328 46.287109 z M 109.40234 46.287109 L 95.931641 59.755859 C 103.20776 67.398518 107.57227 77.404175 107.57227 87.691406 L 126.63281 87.691406 C 126.18505 71.621309 119.70511 57.107216 109.40234 46.287109 z M 52.265625 54.78125 A 7.7556722 7.7556722 0 0 0 44.509766 62.537109 A 7.7556722 7.7556722 0 0 0 52.265625 70.292969 A 7.7556722 7.7556722 0 0 0 60.021484 62.537109 A 7.7556722 7.7556722 0 0 0 52.265625 54.78125 z M 75.615234 54.78125 A 7.7556722 7.7556722 0 0 0 67.859375 62.537109 A 7.7556722 7.7556722 0 0 0 75.615234 70.292969 A 7.7556722 7.7556722 0 0 0 83.371094 62.537109 A 7.7556722 7.7556722 0 0 0 75.615234 54.78125 z M 36.958984 70.445312 A 7.7556722 7.7556722 0 0 0 29.203125 78.199219 A 7.7556722 7.7556722 0 0 0 36.958984 85.955078 A 7.7556722 7.7556722 0 0 0 44.714844 78.199219 A 7.7556722 7.7556722 0 0 0 36.958984 70.445312 z M 90.921875 70.445312 A 7.7556722 7.7556722 0 0 0 83.166016 78.199219 A 7.7556722 7.7556722 0 0 0 90.921875 85.955078 A 7.7556722 7.7556722 0 0 0 98.677734 78.199219 A 7.7556722 7.7556722 0 0 0 90.921875 70.445312 z M 36.28125 89.384766 C 31.556629 89.365868 26.383014 89.782066 20.736328 90.634766 C 6.0628906 92.850551 2.8129827 91.791016 1 91.791016 L 1 101.13672 L 127 101.13672 L 127 91.791016 C 125.18707 91.791016 121.93716 92.850551 107.26367 90.634766 C 87.186595 87.603018 73.064883 90.117993 64 97.847656 C 57.484654 92.291978 48.355283 89.429326 36.28125 89.384766 z "
       transform="matrix(0.26458333,0,0,0.26458333,79.666851,105.48142)" />
  </g>
</svg>
