<?xml version="1.0" encoding="UTF-8" standalone="no"?>
<!-- Generator: Adobe Illustrator 23.0.3, SVG Export Plug-In . SVG Version: 6.00 Build 0)  -->

<svg
   xmlns:dc="http://purl.org/dc/elements/1.1/"
   xmlns:cc="http://creativecommons.org/ns#"
   xmlns:rdf="http://www.w3.org/1999/02/22-rdf-syntax-ns#"
   xmlns:svg="http://www.w3.org/2000/svg"
   xmlns="http://www.w3.org/2000/svg"
   xmlns:sodipodi="http://sodipodi.sourceforge.net/DTD/sodipodi-0.dtd"
   xmlns:inkscape="http://www.inkscape.org/namespaces/inkscape"
   version="1.1"
   id="Warstwa_1"
   x="0px"
   y="0px"
   viewBox="0 0 200.00001 200.00001"
   xml:space="preserve"
   inkscape:version="0.91 r13725"
   sodipodi:docname="jug-polska.svg"
   width="200"
   height="200"><metadata
     id="metadata11386"><rdf:RDF><cc:Work
         rdf:about=""><dc:format>image/svg+xml</dc:format><dc:type
           rdf:resource="http://purl.org/dc/dcmitype/StillImage" /><dc:title></dc:title></cc:Work></rdf:RDF></metadata><defs
     id="defs11384" /><sodipodi:namedview
     pagecolor="#ffffff"
     bordercolor="#666666"
     borderopacity="1"
     objecttolerance="10"
     gridtolerance="10"
     guidetolerance="10"
     inkscape:pageopacity="0"
     inkscape:pageshadow="2"
     inkscape:window-width="1536"
     inkscape:window-height="801"
     id="namedview11382"
     showgrid="false"
     showguides="true"
     inkscape:guide-bbox="true"
     inkscape:zoom="1.3674838"
     inkscape:cx="247.8118"
     inkscape:cy="71.778909"
     inkscape:window-x="-8"
     inkscape:window-y="-8"
     inkscape:window-maximized="1"
     inkscape:current-layer="Warstwa_1"><sodipodi:guide
       position="358.32236,228.52191"
       orientation="0,1"
       id="guide12694" /></sodipodi:namedview><style
     type="text/css"
     id="style11372">
	.st0{fill:#76BC21;}
	.st1{fill:#F5333F;}
	.st2{fill:#3A8DDE;}
	.st3{fill:#F5B335;}
</style><g
     id="g12688"
     transform="matrix(0.7054206,0,0,0.70975142,-0.50728593,11.732228)"><path
       id="path11374"
       d="m 22.63,58.61 c 9.09,-2.84 18.21,-5.59 27.36,-8.35 18.5,-5.58 36.97,-11.24 55.51,-16.7 6,-1.77 12.05,-3.32 18.16,-4.71 -6.91,2.32 -13.94,4.36 -20.94,6.38 -20.06,5.78 -40.04,11.63 -59.63,18.69 -7.2,2.6 -14.32,5.36 -21.38,8.26 0.01,0.17 0.02,0.33 0.05,0.5 0.99,6.27 3.01,11.4 3.04,18.32 0.03,6.14 1.1,7.01 -2.77,11 -3.31,3.4 -7.02,8.34 -6.03,13.44 -0.4,5.24 4.82,5.46 6.99,8.34 2.61,3.47 3.96,11.95 4.81,18.82 10,-4.44 20.02,-8.85 30.05,-13.22 13.15,-5.73 26.3,-11.51 39.49,-17.22 -5.78,3.16 -11.53,6.37 -17.22,9.66 -17.5,10.13 -34.24,21.32 -50.29,33.33 1.46,5.51 3.66,10.7 5.1,16.02 10.3,-5.19 20.49,-10.59 30.82,-15.71 18.52,-9.17 37.28,-17.75 56.46,-25.53 -2.29,1.37 -4.57,2.74 -6.84,4.14 -9.85,6.09 -19.52,12.5 -29,19.18 -9.25,5.26 -18.34,10.78 -27.27,16.56 -4.39,2.85 -8.72,5.79 -13,8.79 -2.15,1.07 -4.31,2.12 -6.46,3.21 -2.34,1.19 -4.67,2.39 -7,3.6 -2.09,4.05 -3.92,8.17 -1.36,11.3 2.44,2.98 6.93,2.23 9.17,-0.53 1.88,1.27 3.74,2.7 5.49,4.14 1.73,1.41 3.5,2.86 5.3,4.25 10.03,-5.71 20.15,-11.3 30.59,-16.47 3.53,-1.75 7.08,-3.45 10.63,-5.17 -10.8,7.62 -21.34,15.55 -31.74,23.62 -1.03,0.8 -2.03,1.64 -3.04,2.47 0.08,0.05 0.15,0.1 0.23,0.15 5.98,3.5 1.1,2.65 4.86,7.39 2.66,3.35 7.26,11.11 12.09,15.01 10.83,-7.53 21.83,-14.87 32.72,-22.29 9.99,-6.8 20.16,-13.35 30.46,-19.73 24.81,-13.55 49.86,-26.71 75.12,-39.61 12.52,-6.39 25.79,-11.94 38.14,-18.64 3.17,-2.59 6.82,-4.32 8.91,-7.89 0.07,-0.35 0.11,-0.71 0.11,-1.08 0.16,-0.03 0.33,-0.06 0.49,-0.09 0.32,-0.72 0.59,-1.51 0.78,-2.39 2.02,-9.39 -2.47,-21.85 -4.91,-30.84 -3.87,-14.27 -10.75,-36.16 -26,-40.81 -2.88,-0.88 -7.98,1.01 -10.95,1.03 -7.11,0.06 -14.22,0.11 -21.32,-0.1 -11.63,-0.33 -22.69,-3.11 -34.18,-4.48 -3.2,-0.38 -9.07,-1.62 -12.17,0.14 -1.4,0.79 -6.08,6.01 -7.58,5.82 -0.5,0.33 -2.51,0.48 -4.66,0.37 -0.14,0.83 -0.69,1.57 -1.77,1.83 -6.4,1.56 -8.09,-5.41 -12.93,-7.57 -2.99,-1.33 -0.4,-5.72 2.57,-4.4 2.1,0.94 3.68,2.61 5.17,4.31 0.91,1.04 2.23,3.14 3.84,2.74 0.67,-0.16 1.26,-0.06 1.74,0.18 4,-3.39 -2.31,-12.85 -6.15,-14.95 -9.06,-4.95 -12.77,-2.17 -21.24,-0.28 -8.49,1.9 -19.47,4.88 -26.93,8.4 -5.11,0 -5.21,4.65 -8.5,6.93 -9.98,6.93 -20.03,7.59 -30.91,12.89 -4.6,2.28 -18.34,2.23 -22.08,7.55 z M 73.16,78.12 C 55.15,84.38 37.06,90.44 19.05,96.71 40.18,87.1 61.77,78.43 83.99,71.26 96.36,67.27 108.93,64.05 121.6,61.23 105.43,66.81 89.3,72.51 73.16,78.12 Z"
       class="st0"
       inkscape:connector-curvature="0"
       style="fill:#76bc21" /><path
       id="path11376"
       d="m 268.51,189.05 c 0.13,-0.19 0.41,-0.21 0.61,-0.32 -0.04,-0.68 -0.1,-1.32 -0.2,-1.83 -1.55,-7.87 -4.88,-15.33 -6.8,-23.12 -0.14,-0.57 -0.32,-1.15 -0.49,-1.74 -24,13.93 -43.26,24.34 -64.77,36.25 -21.05,11.66 -36.89,20.39 -61.9,34.11 -2.8,1.54 -4.93,4.06 -7.34,6.15 2.95,5.05 6.08,9.92 14.02,10.21 3.75,0.14 5.29,-4.24 7.75,-1.22 1.41,2.17 5.8,6.43 9.61,8.57 0.65,-0.54 1.15,-1.33 1.94,-1.62 31.4,-11.54 99.42,-54.01 107.57,-65.44 z"
       class="st1"
       inkscape:connector-curvature="0"
       style="fill:#f5333f" /><path
       id="path11378"
       d="m 242.91,259.4 c -0.39,-6.4 -6.31,-13.12 -7.15,-20.2 5.23,-4.6 7.29,-11.55 11.24,-17.09 1.83,-2.57 3.83,-6.03 6.11,-8.9 -15.7,8.66 -31.25,17.54 -46.51,26.89 -7.09,4.34 -14.06,8.84 -21.06,13.3 0.97,0.37 2.13,0.7 3.6,0.91 2.6,0.31 4.89,-0.37 6.89,-2.05 4.72,-3.82 2.46,-1.43 7.86,-1.08 2.62,0.17 5.22,-1.25 7.53,0.32 3.08,2.11 20.59,15.01 28.1,13.66 0.72,-0.36 1.45,-0.73 2.17,-1.09 0.88,-0.92 1.36,-2.41 1.22,-4.67 z"
       class="st2"
       inkscape:connector-curvature="0"
       style="fill:#3a8dde" /><path
       id="path11380"
       d="m 257.01,144.36 c 0,-0.6 -0.01,-1.19 -0.01,-1.75 l -0.01,0 c -0.11,-5.38 0.68,-15.8 -1.87,-19.33 -0.02,0 -10.58,7.2 -10.6,7.21 -27.14,13.57 -42.69,22.23 -67.43,34.78 -25.03,12.69 -38.11,21.2 -72.82,39.57 -9.71,5.56 -19.27,11.33 -28.7,17.28 1.29,0.93 2.59,1.59 3.87,1.76 5.3,0.73 11.23,-7.06 12.19,-11.26 2.27,1.04 4.65,1.7 7.14,1.97 -0.34,2.32 0.38,4.63 1.89,6.41 4.23,4.97 11.23,5.01 16.94,7.02 0.8,0.28 1.52,0.64 2.19,1.03 46.64,-24.01 93.54,-47.7 140.59,-70.98 -1.6,-4.56 -3.35,-9.34 -3.37,-13.71 z M 174.92,185 c 3.66,-2.01 7.32,-3.98 10.99,-5.92 2.83,-1.34 5.64,-2.71 8.47,-4.04 0.01,0 0.02,-0.01 0.03,-0.01 -6.48,3.35 -12.98,6.68 -19.49,9.97 z"
       class="st3"
       inkscape:connector-curvature="0"
       style="fill:#f5b335" /></g></svg>