<?xml version="1.0" encoding="UTF-8" standalone="no"?>
<!-- Created with Inkscape (http://www.inkscape.org/) -->

<svg
   xmlns:dc="http://purl.org/dc/elements/1.1/"
   xmlns:cc="http://creativecommons.org/ns#"
   xmlns:rdf="http://www.w3.org/1999/02/22-rdf-syntax-ns#"
   xmlns:svg="http://www.w3.org/2000/svg"
   xmlns="http://www.w3.org/2000/svg"
   xmlns:sodipodi="http://sodipodi.sourceforge.net/DTD/sodipodi-0.dtd"
   xmlns:inkscape="http://www.inkscape.org/namespaces/inkscape"
   width="200"
   height="200"
   viewBox="0 0 200 200"
   id="svg10107"
   version="1.1"
   inkscape:version="0.91 r13725"
   inkscape:export-filename="C:\Users\zwias_000\Downloads\jug_malopolska.png"
   inkscape:export-xdpi="90"
   inkscape:export-ydpi="90"
   sodipodi:docname="jug-szczecin.svg">
  <defs
     id="defs10109" />
  <sodipodi:namedview
     id="base"
     pagecolor="#ffffff"
     bordercolor="#666666"
     borderopacity="1.0"
     inkscape:pageopacity="0.0"
     inkscape:pageshadow="2"
     inkscape:zoom="0.65945404"
     inkscape:cx="214.72629"
     inkscape:cy="298.70575"
     inkscape:document-units="px"
     inkscape:current-layer="layer1"
     showgrid="false"
     units="px"
     showguides="true"
     inkscape:guide-bbox="true"
     inkscape:window-width="1536"
     inkscape:window-height="801"
     inkscape:window-x="-8"
     inkscape:window-y="-8"
     inkscape:window-maximized="1">
    <sodipodi:guide
       position="303.14729,174.06522"
       orientation="0,1"
       id="guide11367" />
    <sodipodi:guide
       position="330.52834,-0.97789449"
       orientation="0,1"
       id="guide11369" />
    <sodipodi:guide
       position="39.734669,-25.661974"
       orientation="1,0"
       id="guide13424" />
    <sodipodi:guide
       position="159.76648,-25.661974"
       orientation="1,0"
       id="guide13426" />
    <sodipodi:guide
       position="0,-85.263978"
       orientation="1,0"
       id="guide13428" />
    <sodipodi:guide
       position="181.28943,-105.13131"
       orientation="1,0"
       id="guide13430" />
    <sodipodi:guide
       position="-60.42981,121.68742"
       orientation="0,1"
       id="guide13432" />
    <sodipodi:guide
       position="-52.151754,150.66062"
       orientation="0,1"
       id="guide13434" />
  </sodipodi:namedview>
  <metadata
     id="metadata10112">
    <rdf:RDF>
      <cc:Work
         rdf:about="">
        <dc:format>image/svg+xml</dc:format>
        <dc:type
           rdf:resource="http://purl.org/dc/dcmitype/StillImage" />
        <dc:title></dc:title>
      </cc:Work>
    </rdf:RDF>
  </metadata>
  <g
     inkscape:label="Layer 1"
     inkscape:groupmode="layer"
     id="layer1"
     transform="translate(0,-852.36216)">
    <g
       id="g13544"
       transform="translate(-236.04334,-2.7408348)">
      <g
         id="g13538">
        <path
           style="fill:#76bc21"
           inkscape:connector-curvature="0"
           id="path12734-3"
           d="m 256.30449,907.57189 c 6.48571,-2.03011 13.00347,-3.98543 19.53191,-5.96212 13.20647,-3.98543 26.39158,-8.02428 39.63011,-11.92434 4.28462,-1.2608 8.6013,-2.37202 12.96072,-3.35502 -4.9364,1.65614 -9.94759,3.10927 -14.9481,4.55172 -14.3177,4.12444 -28.58198,8.30219 -42.56845,13.34542 -5.13941,1.85915 -10.2254,3.82515 -15.25796,5.89801 0.0107,0.11753 0.0107,0.23506 0.032,0.35259 0.7052,4.47693 2.14766,8.13113 2.16903,13.0782 0.0214,4.38076 0.79068,5.00048 -1.9767,7.85332 -2.36135,2.42545 -5.01119,5.95143 -4.30599,9.59495 -0.2885,3.73968 3.44052,3.89995 4.98982,5.95143 1.85916,2.47887 2.83149,8.52647 3.42984,13.44148 7.13748,-3.17339 14.28564,-6.31472 21.45518,-9.43468 9.39198,-4.09228 18.77328,-8.21661 28.18663,-12.28752 -4.12435,2.2545 -8.22733,4.55173 -12.28758,6.90238 -12.49059,7.23361 -24.43625,15.21515 -35.90109,23.79504 1.03643,3.93201 2.6071,7.63963 3.63285,11.44342 7.35117,-3.70762 14.62756,-7.56483 22.0001,-11.20835 13.22785,-6.54978 26.61596,-12.67217 40.30326,-18.22826 -1.63479,0.983 -3.26957,1.95531 -4.88298,2.95969 -7.03063,4.34871 -13.93304,8.9218 -20.70724,13.68722 -6.60324,3.75036 -13.09963,7.69305 -19.4678,11.81739 -3.14134,2.03011 -6.21858,4.13501 -9.27445,6.27197 -1.53861,0.76931 -3.07723,1.51714 -4.60517,2.28644 -1.67752,0.8441 -3.33367,1.70957 -4.98982,2.56435 -1.49588,2.8849 -2.79943,5.8339 -0.97232,8.06701 1.74163,2.12627 4.94708,1.59207 6.54981,-0.38464 1.34629,0.9082 2.67121,1.93391 3.92134,2.94901 1.23944,1.0044 2.50026,2.0408 3.78244,3.0345 7.15885,-4.0816 14.38181,-8.06704 21.83983,-11.7533 2.52163,-1.25012 5.05394,-2.4575 7.58624,-3.69694 -7.70377,5.43856 -15.23659,11.10154 -22.66256,16.86064 -0.73726,0.5769 -1.45314,1.1753 -2.16903,1.763 0.0534,0.032 0.10685,0.075 0.16028,0.1068 4.27394,2.5002 0.79067,1.8912 3.47257,5.2783 1.90191,2.3934 5.18215,7.9281 8.63336,10.7168 7.73583,-5.3744 15.57851,-10.61 23.35708,-15.9096 7.1268,-4.8509 14.3925,-9.53085 21.74367,-14.08257 17.71548,-9.66964 35.60192,-19.07226 53.62726,-28.27187 8.93254,-4.56241 18.41,-8.52647 27.225,-13.31326 2.26519,-1.84847 4.86161,-3.0879 6.35749,-5.63088 0.0427,-0.24575 0.0748,-0.51287 0.0748,-0.77999 0.11754,-0.0214 0.23507,-0.0427 0.3526,-0.0641 0.22438,-0.51287 0.41671,-1.07917 0.55561,-1.70957 1.44246,-6.69937 -1.763,-15.5998 -3.50463,-22.01068 -2.75669,-10.1933 -7.67172,-25.81447 -18.55958,-29.13744 -2.06218,-0.63041 -5.69503,0.71588 -7.82131,0.73725 -5.0753,0.0427 -10.15061,0.0748 -15.22591,-0.0641 -8.30213,-0.23507 -16.19823,-2.22244 -24.39351,-3.19486 -2.28656,-0.26712 -6.47502,-1.15396 -8.68679,0.0962 -0.99369,0.5664 -4.33805,4.2954 -5.40653,4.15649 -0.3526,0.23507 -1.79506,0.34192 -3.33367,0.26712 -0.10685,0.58767 -0.49151,1.12191 -1.26082,1.30355 -4.57311,1.11122 -5.76982,-3.85721 -9.23171,-5.40662 -2.13697,-0.95094 -0.28849,-4.08159 1.8378,-3.14133 1.49588,0.67315 2.62847,1.85916 3.68627,3.07723 0.65178,0.74804 1.59204,2.24391 2.73532,1.95542 0.48082,-0.11753 0.89753,-0.0427 1.23944,0.12822 2.85286,-2.41487 -1.64546,-9.17835 -4.39147,-10.67422 -6.46433,-3.52598 -9.11418,-1.5493 -15.1618,-0.20301 -6.05831,1.35697 -13.90099,3.48324 -19.22205,5.99417 -3.65422,0 -3.71832,3.31239 -6.06899,4.94717 -7.1268,4.94706 -14.29633,5.41719 -22.06422,9.19961 -3.28025,1.63477 -13.07825,1.59203 -15.74947,5.39582 z m 36.06137,13.93297 c -12.85387,4.46625 -25.77185,8.79359 -38.62573,13.27052 15.08701,-6.85964 30.49456,-13.04614 46.36156,-18.17484 8.82569,-2.85284 17.80096,-5.15007 26.85103,-7.15881 -11.53964,3.98543 -23.0579,8.05634 -34.58686,12.06313 z"
           class="st0" />
        <path
           style="fill:#f5333f"
           inkscape:connector-curvature="0"
           id="path12736-7"
           d="m 431.83521,1000.6898 c 0.0962,-0.1389 0.28849,-0.1496 0.43808,-0.2244 -0.0321,-0.4915 -0.0748,-0.94027 -0.1389,-1.30355 -1.10054,-5.62019 -3.48327,-10.94122 -4.85093,-16.50789 -0.0962,-0.40602 -0.22438,-0.82273 -0.3526,-1.23944 -17.12781,9.93676 -30.87921,17.37337 -46.23334,25.87848 -15.03359,8.3234 -26.33816,14.5527 -44.19254,24.3506 -1.99807,1.1006 -3.51532,2.8956 -5.23558,4.3915 2.10492,3.6009 4.34874,7.0841 10.01171,7.2871 2.68189,0.096 3.77175,-3.0238 5.53475,-0.8761 1.01506,1.5493 4.13504,4.5944 6.85967,6.1224 0.45945,-0.3847 0.82274,-0.951 1.38903,-1.154 22.38476,-8.2487 70.94741,-38.5615 76.77065,-46.7247 z"
           class="st1" />
        <path
           style="fill:#3a8dde"
           inkscape:connector-curvature="0"
           id="path12738-9"
           d="m 413.55343,1050.9084 c -0.2778,-4.5731 -4.509,-9.3599 -5.09667,-14.4139 3.72901,-3.2909 5.20352,-8.2486 8.02432,-12.202 1.31424,-1.8378 2.73532,-4.306 4.35942,-6.3575 -11.20841,6.1865 -22.30997,12.5226 -33.20851,19.2006 -5.05394,3.0987 -10.04376,6.3148 -15.03359,9.4989 0.69452,0.2671 1.51725,0.5022 2.56437,0.6518 1.85916,0.2244 3.49394,-0.2671 4.91503,-1.4638 3.36572,-2.7247 1.75231,-1.0151 5.60954,-0.7693 1.86985,0.1282 3.72902,-0.8976 5.37448,0.2243 2.20108,1.5066 14.70236,10.7169 20.05547,9.7553 0.51287,-0.2565 1.03643,-0.5236 1.5493,-0.78 0.65178,-0.6625 0.98301,-1.731 0.88684,-3.3444 z"
           class="st2" />
        <path
           style="fill:#f5b335"
           inkscape:connector-curvature="0"
           id="path12740-0"
           d="m 423.61856,968.78509 c 0,-0.42739 0,-0.8441 -0.0107,-1.25012 l -0.0107,0 c -0.0748,-3.84653 0.48082,-11.28315 -1.33561,-13.80476 -0.0107,0 -7.55418,5.13939 -7.56487,5.15007 -19.37163,9.69112 -30.47319,15.86693 -48.13525,24.82079 -17.86507,9.0606 -27.20363,15.14025 -51.99248,28.25053 -6.93447,3.9747 -13.76209,8.0883 -20.49354,12.3409 0.9189,0.6625 1.84848,1.1326 2.76738,1.2608 3.78243,0.5236 8.01363,-5.0432 8.69746,-8.035 1.6241,0.7373 3.32299,1.2074 5.09668,1.4104 -0.24575,1.6562 0.26712,3.3016 1.34629,4.5838 3.02381,3.5474 8.01364,3.5794 12.09525,5.0112 0.5663,0.203 1.07917,0.4594 1.55999,0.7372 33.29399,-17.1384 66.78031,-34.05241 100.36279,-50.66717 -1.11122,-3.28023 -2.37203,-6.68868 -2.38272,-9.80864 z m -58.6064,29.00912 c 2.6071,-1.43176 5.22489,-2.84216 7.84268,-4.23118 2.01943,-0.96163 4.02819,-1.93395 6.04762,-2.8849 0.0107,0 0.0107,0 0.0214,-0.0107 -4.61585,2.40408 -9.25308,4.78679 -13.91167,7.12676 z"
           class="st3" />
      </g>
      <path
         inkscape:transform-center-y="-0.38200244"
         inkscape:transform-center-x="-14.609564"
         d="m 270.4385,937.57112 -11.50714,-8.9784 -13.91977,4.38932 4.98306,-13.71842 -8.47593,-11.8821 14.58684,0.49994 8.68135,-11.73286 4.03211,14.0274 13.8413,4.6308 -12.09487,8.16946 z"
         inkscape:randomized="0"
         inkscape:rounded="0"
         inkscape:flatsided="false"
         sodipodi:arg2="1.7493552"
         sodipodi:arg1="1.1210367"
         sodipodi:r2="10.989434"
         sodipodi:r1="21.978868"
         sodipodi:cy="917.77802"
         sodipodi:cx="260.88321"
         sodipodi:sides="5"
         id="path13532"
         style="opacity:1;fill:#fef202;fill-opacity:1;fill-rule:nonzero;stroke:#76bc21;stroke-width:3.41100001;stroke-linecap:round;stroke-linejoin:round;stroke-miterlimit:4;stroke-dasharray:none;stroke-dashoffset:0;stroke-opacity:1"
         sodipodi:type="star" />
    </g>
  </g>
</svg>
