<?xml version="1.0" encoding="UTF-8" standalone="no"?>
<!-- Created with Inkscape (http://www.inkscape.org/) -->

<svg
   xmlns:dc="http://purl.org/dc/elements/1.1/"
   xmlns:cc="http://creativecommons.org/ns#"
   xmlns:rdf="http://www.w3.org/1999/02/22-rdf-syntax-ns#"
   xmlns:svg="http://www.w3.org/2000/svg"
   xmlns="http://www.w3.org/2000/svg"
   xmlns:sodipodi="http://sodipodi.sourceforge.net/DTD/sodipodi-0.dtd"
   xmlns:inkscape="http://www.inkscape.org/namespaces/inkscape"
   width="200"
   height="200"
   viewBox="0 0 200 200"
   id="svg10107"
   version="1.1"
   inkscape:version="0.91 r13725"
   inkscape:export-filename="C:\Users\zwias_000\Downloads\jug_malopolska.png"
   inkscape:export-xdpi="90"
   inkscape:export-ydpi="90"
   sodipodi:docname="jug-silesia1.svg">
  <defs
     id="defs10109" />
  <sodipodi:namedview
     id="base"
     pagecolor="#ffffff"
     bordercolor="#666666"
     borderopacity="1.0"
     inkscape:pageopacity="0.0"
     inkscape:pageshadow="2"
     inkscape:zoom="0.73454057"
     inkscape:cx="405.42933"
     inkscape:cy="-71.439071"
     inkscape:document-units="px"
     inkscape:current-layer="layer1"
     showgrid="false"
     units="px"
     showguides="true"
     inkscape:guide-bbox="true"
     inkscape:window-width="1536"
     inkscape:window-height="801"
     inkscape:window-x="-8"
     inkscape:window-y="-8"
     inkscape:window-maximized="1">
    <sodipodi:guide
       position="303.14729,174.06522"
       orientation="0,1"
       id="guide11367" />
    <sodipodi:guide
       position="330.52834,-0.97789449"
       orientation="0,1"
       id="guide11369" />
    <sodipodi:guide
       position="39.734669,-25.661974"
       orientation="1,0"
       id="guide13424" />
    <sodipodi:guide
       position="159.76648,-25.661974"
       orientation="1,0"
       id="guide13426" />
    <sodipodi:guide
       position="0,-85.263978"
       orientation="1,0"
       id="guide13428" />
    <sodipodi:guide
       position="181.28943,-105.13131"
       orientation="1,0"
       id="guide13430" />
    <sodipodi:guide
       position="-60.42981,121.68742"
       orientation="0,1"
       id="guide13432" />
    <sodipodi:guide
       position="-52.151754,150.66062"
       orientation="0,1"
       id="guide13434" />
  </sodipodi:namedview>
  <metadata
     id="metadata10112">
    <rdf:RDF>
      <cc:Work
         rdf:about="">
        <dc:format>image/svg+xml</dc:format>
        <dc:type
           rdf:resource="http://purl.org/dc/dcmitype/StillImage" />
        <dc:title></dc:title>
      </cc:Work>
    </rdf:RDF>
  </metadata>
  <g
     inkscape:label="Layer 1"
     inkscape:groupmode="layer"
     id="layer1"
     transform="translate(0,-852.36216)">
    <g
       id="g13470"
       transform="translate(0.23955499,-4.7868482)">
      <path
         inkscape:connector-curvature="0"
         id="path12734"
         d="m 85.568828,882.30206 c -2.535251,0.0647 -4.861891,1.02206 -8.263671,1.77929 -6.0583,1.357 -13.89967,3.48325 -19.220703,5.99415 -3.654221,0 -3.719643,3.31246 -6.070313,4.94726 -7.12678,4.9471 -14.296583,5.41682 -22.064453,9.19922 -3.28025,1.6348 -13.076847,1.59268 -15.748047,5.39648 6.48569,-2.0301 13.00282,-3.98619 19.53125,-5.96289 13.20645,-3.9854 26.392359,-8.02392 39.630859,-11.92382 4.28462,-1.2608 8.599575,-2.37247 12.958985,-3.35547 -4.93639,1.6562 -9.946766,3.10828 -14.947266,4.55078 -14.31768,4.1243 -28.581919,8.3025 -42.568359,13.3457 -5.1394,1.8592 -10.225252,3.82564 -15.257812,5.89844 0.0107,0.1176 0.0099,0.23601 0.03125,0.35351 0.7052,4.477 2.148551,8.13113 2.169921,13.07813 0.0214,4.3808 0.790818,4.99876 -1.976562,7.85156 -2.36134,2.4255 -5.0118406,5.95218 -4.3066406,9.59571 -0.28849,3.7397 3.4409346,3.89967 4.9902346,5.95117 1.85916,2.4788 2.831337,8.5264 3.429687,13.4414 7.13747,-3.1734 14.285558,-6.31369 21.455078,-9.43359 4.131215,-1.80007 8.267721,-3.60105 12.398438,-5.40625 l 0,-4.70703 0.0039,0 1.814453,0 0,3.91601 c 0.399653,-0.17458 0.79963,-0.34876 1.199219,-0.52343 0.249612,-2.04559 1.703466,-3.51563 3.863281,-3.51563 0.9868,0 1.785903,0.29817 2.400391,0.78516 2.168658,-0.94679 4.334421,-1.89799 6.507812,-2.83789 -2.007467,1.09734 -4.008666,2.20687 -6.003906,3.32617 0.59796,0.71894 0.916015,1.67571 0.916015,2.72461 0,2.5956 -1.600439,4.16797 -3.951171,4.16797 -2.032013,0 -3.335482,-1.28936 -3.681641,-3.06055 -0.433264,0.25473 -0.865259,0.51111 -1.298828,0.76562 -0.226225,1.68156 -1.261203,2.29493 -2.81836,2.29493 -0.274433,0 -0.590879,-0.0378 -0.888671,-0.0918 -10.530308,6.3604 -20.673595,13.24627 -30.462891,20.57227 1.03643,3.932 2.607072,7.63955 3.632812,11.44336 7.35117,-3.7077 14.62747,-7.56549 22,-11.20899 13.22782,-6.5498 26.615465,-12.67241 40.302735,-18.22851 -1.63478,0.98299 -3.269403,1.95458 -4.882813,2.95898 -7.03062,4.3487 -13.932851,8.9221 -20.707031,13.6875 -6.60322,3.7504 -13.098637,7.69396 -19.466797,11.81836 -3.14134,2.0301 -6.219531,4.13448 -9.275391,6.27148 -1.53862,0.7693 -3.077528,1.51781 -4.605468,2.28711 -1.67751,0.8441 -3.332131,1.70966 -4.988282,2.56446 -1.495877,2.8849 -2.799764,5.8333 -0.972656,8.0664 1.74163,2.1263 4.946108,1.5919 6.548828,-0.3848 1.34629,0.9082 2.671755,1.9342 3.921875,2.9492 1.23944,1.0045 2.501024,2.0415 3.783203,3.0352 7.15884,-4.0816 14.379881,-8.06772 21.837891,-11.75389 2.52162,-1.25021 5.055581,-2.45787 7.587891,-3.69727 -7.70377,5.4386 -15.238103,11.10216 -22.664063,16.86136 -0.73725,0.577 -1.452088,1.1759 -2.167969,1.7636 0.0534,0.032 0.106737,0.074 0.160157,0.1055 4.27394,2.5003 0.790766,1.8922 3.472656,5.2793 1.9019,2.3934 5.181612,7.9281 8.632813,10.7168 7.73581,-5.3745 15.578861,-10.6105 23.357421,-15.9102 7.12678,-4.8509 14.392971,-9.5303 21.744141,-14.08199 17.71543,-9.6698 35.60163,-19.07373 53.62695,-28.27343 8.93252,-4.5624 18.40962,-8.5257 27.22461,-13.3125 2.26518,-1.8484 4.86154,-3.08786 6.35742,-5.63086 0.0427,-0.2457 0.0742,-0.5122 0.0742,-0.7793 0.11754,-0.021 0.23599,-0.0435 0.35352,-0.0645 0.22438,-0.5129 0.41579,-1.08044 0.55469,-1.71094 1.44246,-6.6993 -1.76228,-15.59887 -3.50391,-22.00977 -2.75669,-10.1932 -7.67271,-25.81381 -18.56055,-29.13671 -2.06217,-0.6304 -5.69403,0.71492 -7.82031,0.73632 -5.07529,0.043 -10.15127,0.0746 -15.22656,-0.0644 -8.30211,-0.2351 -16.19731,-2.22096 -24.39258,-3.19336 -2.28655,-0.2671 -6.47573,-1.1542 -8.6875,0.0957 -0.99367,0.5663 -4.33776,4.29515 -5.40625,4.15625 -0.3526,0.2351 -1.795374,0.34238 -3.333984,0.26758 -0.10685,0.5877 -0.490466,1.12104 -1.259766,1.30274 -4.57311,1.1112 -5.770532,-3.85685 -9.232422,-5.40625 -2.13696,-0.9509 -0.288389,-4.08288 1.837891,-3.14258 1.49588,0.6732 2.627747,1.86012 3.685547,3.07812 0.65177,0.748 1.593048,2.24358 2.736328,1.95508 0.48081,-0.1176 0.896361,-0.0423 1.238281,0.12891 2.85285,-2.4148 -1.644625,-9.17793 -4.390625,-10.67383 -2.82814,-1.54263 -4.926573,-2.03271 -6.898438,-1.98242 z m -10.050781,23.07617 c 2.367771,0 3.842389,1.5306 3.886719,3.6543 0,1.9978 -1.518938,3.61523 -3.886719,3.61523 l -0.04102,0 c -2.364098,0 -3.84375,-1.61743 -3.84375,-3.61523 0,-2.1237 1.516973,-3.6543 3.884765,-3.6543 z m 66.496103,0 c 2.36778,0 3.84437,1.5305 3.88867,3.6543 0,1.9977 -1.52089,3.61523 -3.88867,3.61523 l -0.043,0 c -2.36409,0 -3.84375,-1.61753 -3.84375,-3.61523 0,-2.1238 1.51893,-3.6543 3.88672,-3.6543 z m -58.005868,0.12891 7.646484,0 0,30.22265 -7.646484,0 0,-23.94922 c -2.907403,1.00526 -5.811573,2.02197 -8.716797,3.03516 l 4.029297,0 0,20.91406 -7.648438,0 0,-19.65429 c -3.06426,1.07087 -6.129789,2.13494 -9.193359,3.20703 3.670328,1.84391 5.350953,4.32126 5.353515,7.73047 0,4.9281 -3.80271,9.13867 -12.126953,9.13867 -3.422179,0 -6.759582,-0.89324 -8.365234,-1.74414 l 1.435547,-6.33203 c 1.735134,0.8952 4.521834,1.78711 7.396484,1.78711 2.619349,0 3.886719,-0.89335 3.886719,-2.33985 0,-1.406 -1.267212,-2.16714 -4.478516,-3.27344 -1.168131,-0.42343 -2.236978,-0.90312 -3.193359,-1.4414 -0.708424,0.24667 -1.416497,0.49596 -2.125,0.74219 -12.85385,4.4662 -25.77115,8.79458 -38.625,13.27148 12.600429,-5.72904 25.42814,-10.97883 38.55664,-15.54492 -1.670819,-1.47993 -2.642578,-3.32391 -2.642578,-5.65821 0,-5.0575 4.270119,-8.96875 11.451172,-8.96875 3.377795,0 5.830271,0.64057 7.6875,1.44727 l -1.605468,6.16406 c -1.224593,-0.5548 -3.337724,-1.36328 -6.167969,-1.36328 -2.323396,0 -3.591797,0.85251 -3.591797,2.12891 0,1.33316 1.373444,1.93051 4.388672,3.07812 7.998607,-2.516 16.114785,-4.5908 24.294922,-6.42383 l 0,-6.17382 z m 43.562508,8.83789 c 2.53426,0 4.8139,0.5958 6.16796,1.1914 l -1.2246,5.1875 c -0.973,-0.4662 -2.91473,-1.14648 -4.60547,-1.14648 -1.30969,0 -2.07227,0.34051 -2.07227,1.1914 0,0.68071 0.67779,1.10551 3.12695,1.91211 4.09554,1.3172 5.65893,3.48439 5.70703,6.45899 0,3.9956 -3.08519,7.01562 -9.50781,7.01562 -2.91533,0 -5.49426,-0.63748 -7.14062,-1.48828 l 1.31054,-5.39648 c 1.18389,0.7213 3.88885,1.57226 5.7461,1.57226 1.65003,0 2.28125,-0.34193 2.28125,-1.14843 0,-0.7658 -0.46485,-1.06561 -2.70313,-1.78711 -4.60608,-1.4465 -6.16765,-3.95386 -6.12695,-6.37696 0,-4.1658 3.547,-7.18554 9.04102,-7.18554 z m -21.46485,0.004 c 6.71859,0 9.59075,4.97274 9.59375,10.71094 0,1.232 -0.17108,2.37827 -0.29687,2.88867 l -12.84571,0 c 0.25158,1.6575 2.66079,2.59375 5.36523,2.59375 1.94233,0 3.79922,-0.21104 5.66016,-0.80664 l 0.97266,5.10156 c -2.48987,0.9767 -5.19282,1.31836 -7.77149,1.31836 -7.310534,0 -11.45117,-4.04012 -11.45117,-10.66992 0,-4.8466 3.126238,-11.13672 10.77344,-11.13672 z m 53.27149,0 c 7.14036,0 9.63476,3.99516 9.63476,9.22266 l 0,7.05664 c 0,2.083 0.12916,4.04007 0.34375,5.10547 l -6.88867,0 -0.38086,-1.82813 -0.17187,0 c -1.43547,1.6574 -3.50584,2.29297 -5.74415,2.29297 -4.2694,0 -6.88867,-3.10289 -6.88867,-6.58789 0,-5.6123 5.02675,-8.12109 12.08203,-8.12109 l 0,-0.16992 c 0,-0.851 -0.63232,-1.78711 -3.42187,-1.78711 -2.1976,0 -4.48023,0.76545 -5.875,1.53125 l -1.31055,-4.80274 c 1.30969,-0.7214 4.311,-1.91211 8.6211,-1.91211 z m -21.20704,0.4668 7.64844,0 0,20.91406 -7.64844,0 0,-20.91406 z m -32.44531,4.55078 c -2.2383,0 -3.12616,2.08144 -3.25195,3.39844 l 6.20703,0 c 0,-1.1913 -0.5466,-3.39844 -2.95508,-3.39844 z m 55.89063,6.80274 c -3.12621,0 -4.85742,0.84675 -4.85742,2.71875 0,1.3171 0.84657,1.99804 2.15625,1.99804 1.0988,0 2.23807,-0.76521 2.61914,-1.91211 0.0851,-0.3404 0.0859,-0.72447 0.0859,-1.10547 l -0.004,0 0,-1.69921 z m -48.72266,16.5996 c 0.90666,0 1.57576,0.18634 2.05469,0.39844 l -0.40625,1.44336 c -0.32172,-0.1535 -0.89563,-0.37695 -1.68164,-0.37695 -0.78602,0 -1.16992,0.35242 -1.16992,0.76562 0,0.5045 0.45391,0.72774 1.49218,1.11524 1.41849,0.5155 2.08789,1.24242 2.08789,2.35742 0,1.3271 -1.03794,2.45313 -3.24609,2.45313 -0.92128,0 -1.82792,-0.23383 -2.28125,-0.48243 l 0.36914,-1.47656 c 0.48989,0.2449 1.24253,0.49219 2.01758,0.49219 0.8372,0 1.27539,-0.34007 1.27539,-0.85547 0,-0.4936 -0.3825,-0.77524 -1.34766,-1.11523 -1.33805,-0.45701 -2.20898,-1.18434 -2.20898,-2.33594 0,-1.349 1.14386,-2.3828 3.04492,-2.38282 z m -45.712893,0.004 c 2.471376,0 3.820312,1.81545 3.820312,3.99805 0,2.5956 -1.600441,4.16797 -3.951172,4.16797 -2.387291,0 -3.785156,-1.77329 -3.785156,-4.02539 0,-2.369 1.539694,-4.14063 3.916016,-4.14063 z m 83.902343,0 c 2.47138,0 3.82032,1.81545 3.82032,3.99805 0,2.5956 -1.60046,4.16797 -3.95117,4.16797 -2.3873,0 -3.78516,-1.77329 -3.78516,-4.02539 0,-2.369 1.53969,-4.14063 3.91601,-4.14063 z m -14.49218,0.043 c 1.03827,0 1.83954,0.20227 2.23437,0.38867 l -0.38476,1.43164 c -0.44237,-0.1864 -0.99028,-0.33984 -1.875,-0.33984 -1.51719,0 -2.66016,0.84595 -2.66016,2.56055 0,1.6306 1.0377,2.59179 2.5293,2.59179 0.41677,0 0.75195,-0.0482 0.89453,-0.11719 l 0,-1.65624 -1.24219,0 0,-1.39649 2.99805,0 0,4.16797 c -0.55935,0.1865 -1.62339,0.44531 -2.6836,0.44531 -1.46966,0 -2.52934,-0.36636 -3.27148,-1.06836 -0.73849,-0.68 -1.1494,-1.71435 -1.13477,-2.87695 0.011,-2.6285 1.95982,-4.13086 4.59571,-4.13086 z m -11.29297,0.0215 c 1.19182,0 2.02954,0.17705 2.60351,0.62305 0.47892,0.3766 0.74219,0.92875 0.74219,1.65625 0,1.0091 -0.72726,1.69867 -1.42187,1.94727 l 0,0.0371 c 0.55935,0.223 0.86951,0.74896 1.07421,1.47656 0.25228,0.892 0.50101,1.92697 0.65821,2.23047 l -1.86133,0 c -0.13161,-0.2231 -0.32122,-0.8693 -0.5625,-1.8418 -0.2157,-0.9871 -0.56229,-1.25853 -1.30078,-1.26953 l -0.54883,0 0,3.11133 -1.80273,0 0,-7.80469 c 0.58492,-0.0947 1.45287,-0.16602 2.41992,-0.16602 z m 17.6289,0 c 1.19182,0 2.02955,0.17705 2.60352,0.62305 0.47892,0.3766 0.73828,0.92875 0.73828,1.65625 0,1.0091 -0.727,1.69867 -1.41797,1.94727 l 0,0.0371 c 0.56301,0.223 0.86949,0.74896 1.07422,1.47656 0.25226,0.892 0.501,1.92697 0.6582,2.23047 l -1.86132,0 c -0.13161,-0.2231 -0.32121,-0.8693 -0.5625,-1.8418 -0.21569,-0.9871 -0.55864,-1.25853 -1.30079,-1.26953 l -0.54882,0 0,3.11133 -1.80274,0 0,-7.80469 c 0.58493,-0.0947 1.45651,-0.16602 2.41992,-0.16602 z m 23.77149,0 c 1.12235,0 1.92156,0.21242 2.45898,0.63282 0.51182,0.3985 0.85938,1.05703 0.85938,1.83203 0,0.775 -0.26301,1.4292 -0.73828,1.8789 -0.6215,0.574 -1.53845,0.83399 -2.61328,0.83399 -0.23764,0 -0.45293,-0.0111 -0.6211,-0.0371 l 0,2.83008 -1.80273,0 0,-7.80469 c -0.001,1.8e-4 -0.003,-1.8e-4 -0.004,0 l 0.004,-0.002 0,0.002 c 0.55916,-0.0947 1.34773,-0.16602 2.45703,-0.16602 z m -84.404302,0.0586 1.828125,0 0,6.41015 3.199219,0 0,1.50196 -5.027344,0 0,-7.91211 z m 8.046875,0 2.386719,0 2.49414,7.91211 -1.958984,0 -0.623047,-2.0293 -2.298828,0 -0.574219,2.0293 -1.886719,0 2.460938,-7.91211 z m 11.552737,0 1.83203,0 0,4.55664 c 0,1.3599 0.52648,2.05469 1.45508,2.05469 0.95418,0 1.48047,-0.65819 1.48047,-2.05469 l 0,-4.55664 1.8125,0 0,4.43554 c 0,2.4421 -1.25334,3.60352 -3.35547,3.60352 -2.02902,0 -3.22461,-1.1025 -3.22461,-3.625 l 0,-4.41406 z m 14.60156,0 4.96485,0 0,1.4668 -3.14063,0 0,1.64062 2.96094,0 0,1.45898 -2.95703,0 0,1.87891 3.30469,0 0,1.4668 -5.13282,0 0,-7.91211 z m 39.58594,0 1.83203,0 0,4.55664 c 0,1.3599 0.52648,2.05469 1.45508,2.05469 0.95418,0 1.48047,-0.65819 1.48047,-2.05469 l 0,-4.55664 1.8125,0 0,4.43554 c 0,2.4421 -1.25334,3.60352 -3.35547,3.60352 -2.02902,0 -3.22461,-1.1025 -3.22461,-3.625 l 0,-4.41406 z m -83.548831,0.004 2.423828,0 0.791016,2.64063 c 0.252256,0.914 0.500549,1.89952 0.679687,2.82812 l 0.03711,0 c 0.226664,-0.914 0.500449,-1.95884 0.763672,-2.83984 l 0.859375,-2.62891 2.375,0 0.443359,7.91211 -1.78125,0 -0.123047,-3.03125 c -0.03656,-0.9505 -0.07422,-2.102 -0.07422,-3.25 l -0.03516,0 c -0.252256,1.009 -0.585734,2.13586 -0.896484,3.06446 l -0.980469,3.08398 -1.417969,0 -0.859375,-3.0625 c -0.263223,-0.9286 -0.536456,-2.05494 -0.726562,-3.08594 l -0.02539,0 c -0.04753,1.0675 -0.08409,2.28829 -0.142578,3.27539 l -0.142578,3.00586 -1.681641,0 0.513672,-7.91211 z m 23.625,0 1.898438,0 -0.263672,5.31641 -1.361328,0 -0.273438,-5.31641 z m 29.341801,1.26563 c -0.44236,0 -0.69065,0.0366 -0.82227,0.0586 l 0,2.18164 0.7168,0 c 0.90666,0 1.44336,-0.4457 1.44336,-1.13672 0,-0.72748 -0.5007,-1.09251 -1.33789,-1.10351 z m 17.63281,0 c -0.44236,0 -0.69065,0.0366 -0.82226,0.0586 l 0,2.18164 0.71679,0 c 0.90666,0 1.44336,-0.4457 1.44336,-1.13672 0,-0.72748 -0.50069,-1.09251 -1.33789,-1.10351 z m -84.556642,0.0254 c -0.767947,0 -1.335598,0.44555 -1.654297,1.1543 0.772138,-0.33767 1.546136,-0.67225 2.318359,-1.00977 -0.201542,-0.0861 -0.418308,-0.14453 -0.664062,-0.14453 z m 8.5625,0 c -1.232032,0 -1.949219,1.1484 -1.949219,2.6875 0,1.5501 0.737916,2.63867 1.958985,2.63867 1.228374,0 1.933593,-1.1521 1.933593,-2.6875 0,-1.4185 -0.689392,-2.63867 -1.943359,-2.63867 z m 83.894532,0 c -1.22838,0 -1.94531,1.1484 -1.94531,2.6875 0,1.5501 0.73962,2.63867 1.95703,2.63867 1.22837,0 1.9336,-1.1521 1.9336,-2.6875 0,-1.4185 -0.69501,-2.63867 -1.94532,-2.63867 z m 15.75977,0 c -0.36924,0 -0.62034,0.0364 -0.75195,0.0684 l 0,2.33594 0,0.002 c 0.1572,0.036 0.34615,0.0469 0.60937,0.0469 0.96516,0 1.56445,-0.48311 1.56445,-1.29101 0,-0.7275 -0.51155,-1.16211 -1.42187,-1.16211 z m -75.343755,0.0469 c -0.120644,0.46798 -0.23753,1.06849 -0.369141,1.52539 l -0.478516,1.67773 1.78125,0 -0.501953,-1.67773 c -0.14258,-0.4716 -0.285606,-1.05741 -0.40625,-1.52539 l -0.02539,0 z m -31.472657,0.68945 c -1.118424,0.63206 -2.234934,1.26676 -3.347656,1.90625 -1.44e-4,0.0154 -0.002,0.0295 -0.002,0.0449 0,1.5501 0.737915,2.63867 1.958985,2.63867 1.228374,0 1.935546,-1.1521 1.935546,-2.6875 0,-0.7368 -0.190008,-1.41552 -0.544922,-1.90234 z m 37.136719,3.87305 c 0.632468,0 1.051532,0.44685 1.0625,1.06835 0,0.6105 -0.415409,1.06641 -1.0625,1.06641 -0.647091,0 -1.076172,-0.45591 -1.076172,-1.06641 0,-0.6215 0.443705,-1.06835 1.076172,-1.06835 z"
         style="fill:#76bc21" />
      <path
         class="st1"
         d="m 189.73133,1002.7358 c 0.0962,-0.1389 0.28849,-0.1496 0.43808,-0.2244 -0.0321,-0.4915 -0.0748,-0.9403 -0.1389,-1.3036 -1.10054,-5.62023 -3.48325,-10.94123 -4.85091,-16.50803 -0.0962,-0.406 -0.22438,-0.8228 -0.3526,-1.2395 -17.12778,9.9369 -30.87916,17.37363 -46.23327,25.87873 -15.03356,8.3235 -26.3381,14.5527 -44.192442,24.3507 -1.99807,1.1006 -3.51531,2.8956 -5.23557,4.3915 2.10491,3.6008 4.34873,7.084 10.01169,7.287 2.681892,0.096 3.771742,-3.0238 5.534742,-0.8761 1.01505,1.5493 4.13502,4.5945 6.85965,6.1224 0.45945,-0.3847 0.82273,-0.951 1.38903,-1.154 22.38471,-8.2487 70.94728,-38.5615 76.7705,-46.7247 z"
         id="path12736"
         inkscape:connector-curvature="0"
         style="fill:#f5333f" />
      <path
         class="st2"
         d="m 171.4496,1052.9545 c -0.27781,-4.5731 -4.509,-9.3599 -5.09667,-14.4139 3.72901,-3.2909 5.20351,-8.2487 8.02431,-12.202 1.31423,-1.8378 2.73532,-4.306 4.35941,-6.3575 -11.20839,6.1865 -22.30993,12.5226 -33.20846,19.2006 -5.05393,3.0986 -10.04374,6.3148 -15.03356,9.4988 0.69451,0.2672 1.51725,0.5022 2.56436,0.6518 1.85916,0.2244 3.49394,-0.2671 4.91502,-1.4638 3.36572,-2.7246 1.75231,-1.0151 5.60954,-0.7693 1.86984,0.1282 3.729,-0.8975 5.37448,0.2244 2.20107,1.5065 14.70232,10.7169 20.05542,9.7552 0.51288,-0.2564 1.03643,-0.5235 1.5493,-0.78 0.65178,-0.6624 0.98301,-1.7309 0.88685,-3.3443 z"
         id="path12738"
         inkscape:connector-curvature="0"
         style="fill:#3a8dde" />
      <path
         class="st3"
         d="m 181.51471,970.83087 c 0,-0.4274 0,-0.8441 -0.0107,-1.2502 l -0.0107,0 c -0.0748,-3.8465 0.48081,-11.2831 -1.33561,-13.8048 -0.0107,0 -7.55417,5.1394 -7.56486,5.1501 -19.3716,9.6912 -30.47314,15.867 -48.13517,24.8209 -17.86504,9.0607 -27.203562,15.14043 -51.992372,28.25073 -6.93446,3.9747 -13.76206,8.0884 -20.49351,12.341 0.9189,0.6624 1.84848,1.1326 2.76737,1.2608 3.78243,0.5235 8.01363,-5.0433 8.69746,-8.035 1.62409,0.7372 3.32298,1.2074 5.09666,1.4104 -0.24575,1.6561 0.26712,3.3016 1.34629,4.5838 3.02381,3.5473 8.01362,3.5794 12.09523,5.0112 0.56629,0.203 1.07917,0.4594 1.55998,0.7372 33.293922,-17.1385 66.780192,-34.05253 100.362612,-50.66753 -1.11122,-3.2802 -2.37203,-6.6887 -2.38271,-9.8086 z m -58.60631,29.0093 c 2.6071,-1.4318 5.22488,-2.8422 7.84267,-4.2312 2.01943,-0.9616 4.02818,-1.934 6.04761,-2.8849 0.0107,0 0.0107,0 0.0214,-0.011 -4.61585,2.4041 -9.25306,4.7868 -13.91165,7.1268 z"
         id="path12740"
         inkscape:connector-curvature="0"
         style="fill:#f5b335" />
    </g>
  </g>
</svg>
