<?xml version="1.0" encoding="UTF-8" standalone="no"?>
<!-- Generator: Adobe Illustrator 23.0.3, SVG Export Plug-In . SVG Version: 6.00 Build 0)  -->

<svg
   xmlns:dc="http://purl.org/dc/elements/1.1/"
   xmlns:cc="http://creativecommons.org/ns#"
   xmlns:rdf="http://www.w3.org/1999/02/22-rdf-syntax-ns#"
   xmlns:svg="http://www.w3.org/2000/svg"
   xmlns="http://www.w3.org/2000/svg"
   xmlns:sodipodi="http://sodipodi.sourceforge.net/DTD/sodipodi-0.dtd"
   xmlns:inkscape="http://www.inkscape.org/namespaces/inkscape"
   version="1.1"
   id="Warstwa_1"
   x="0px"
   y="0px"
   viewBox="0 0 200.00001 200.00001"
   xml:space="preserve"
   inkscape:version="0.91 r13725"
   sodipodi:docname="jug_jawor.svg"
   width="200"
   height="200"><metadata
     id="metadata11386"><rdf:RDF><cc:Work
         rdf:about=""><dc:format>image/svg+xml</dc:format><dc:type
           rdf:resource="http://purl.org/dc/dcmitype/StillImage" /><dc:title></dc:title></cc:Work></rdf:RDF></metadata><defs
     id="defs11384" /><sodipodi:namedview
     pagecolor="#ffffff"
     bordercolor="#666666"
     borderopacity="1"
     objecttolerance="10"
     gridtolerance="10"
     guidetolerance="10"
     inkscape:pageopacity="0"
     inkscape:pageshadow="2"
     inkscape:window-width="1536"
     inkscape:window-height="801"
     id="namedview11382"
     showgrid="false"
     showguides="true"
     inkscape:guide-bbox="true"
     inkscape:zoom="0.34187095"
     inkscape:cx="11.9977"
     inkscape:cy="-5.0314103"
     inkscape:window-x="-8"
     inkscape:window-y="-8"
     inkscape:window-maximized="1"
     inkscape:current-layer="Warstwa_1"><sodipodi:guide
       position="358.32236,228.52191"
       orientation="0,1"
       id="guide12694" /></sodipodi:namedview><style
     type="text/css"
     id="style11372">
	.st0{fill:#76BC21;}
	.st1{fill:#F5333F;}
	.st2{fill:#3A8DDE;}
	.st3{fill:#F5B335;}
</style><g
     id="g12723"
     transform="translate(-336.54835,54.812649)"><path
       id="path11374-8"
       d="m 423.00447,-28.643808 c -2.52072,0.0654 -4.83332,1.01889 -8.21484,1.77344 -6.02579,1.34853 -13.81854,3.46457 -19.11328,5.96289 -3.62683,0 -3.69812,3.29974 -6.03321,4.91797 -7.08332,4.918582 -14.2154,5.386752 -21.9375,9.1484415 -3.26485,1.61823 -13.0174,1.58349 -15.67187,5.35937 6.45164,-2.01569 12.92569,-3.96687 19.41992,-5.92578 13.1304,-3.9604195 26.23769,-7.9782595 39.39648,-11.8535115 4.25851,-1.25626 8.55405,-2.35719 12.89063,-3.34375 -4.90438,1.64663 -9.89502,3.09559 -14.86328,4.52929 -14.23762,4.102362 -28.41824,8.2547815 -42.32227,13.2656315 -5.11021,1.84535 -10.16298,3.80305 -15.17383,5.86133 0.007,0.12066 0.0139,0.23481 0.0352,0.35547 0.70265,4.45014 2.13691,8.09047 2.1582,13.0019505 0.0213,4.357875 0.77995,4.976685 -1.96679,7.808595 -2.34928,2.41316 -4.98195,5.91933 -4.2793,9.53906 -0.2839,3.7191 3.42078,3.87389 4.96094,5.91797 1.85245,2.46284 2.81077,8.48143 3.41406,13.35743 7.09752,-3.1513 14.20932,-6.28121 21.32813,-9.38282 9.03152,-3.93541 18.06389,-7.90155 27.12109,-11.82617 -0.0784,0.004 -0.1477,0.0215 -0.22852,0.0215 -1.13226,0 -2.00099,-0.42368 -2.60742,-1.26953 -0.60259,-0.84586 -0.9043,-2.00268 -0.9043,-3.47266 0,-1.2852 0.32805,-2.37285 0.98438,-3.25976 0.66017,-0.89102 1.54102,-1.33594 2.64258,-1.33594 1.21286,0 2.14027,0.40224 2.78125,1.20703 0.64097,0.80479 0.96094,1.93512 0.96094,3.38867 0,1.45356 -0.33614,2.60687 -1.00782,3.46094 -0.57985,0.74155 -1.38543,1.14059 -2.39062,1.23828 -3.87411,2.12302 -7.72878,4.2759 -11.54492,6.48242 -12.42066,7.18978 -24.30185,15.13214 -35.69336,23.65625 1.03623,3.91073 2.5971,7.59328 3.61914,11.36914 7.31044,-3.68361 14.54326,-7.51452 21.875,-11.14843 13.1446,-6.50843 26.45923,-12.59922 40.07226,-18.1211 -1.62533,0.97236 -3.24434,1.94581 -4.85547,2.93946 -6.99105,4.32239 -13.85358,8.87018 -20.58203,13.61132 -6.5652,3.73329 -13.01739,7.65155 -19.35547,11.75392 -3.1158,2.02278 -6.18882,4.10901 -9.22656,6.23827 -1.52596,0.75943 -3.05997,1.50566 -4.58594,2.27929 -1.66081,0.8446 -3.31307,1.6959 -4.96679,2.55469 -1.48338,2.8745 -2.78376,5.79996 -0.9668,8.02149 1.73179,2.11506 4.91992,1.58195 6.50977,-0.37696 1.33433,0.90138 2.65442,1.91547 3.89648,2.9375 1.22787,1.0008 2.48417,2.03098 3.76172,3.01758 7.11881,-4.05273 14.30113,-8.02004 21.71094,-11.68945 2.50542,-1.24207 5.0253,-2.44915 7.54492,-3.66991 -7.66532,5.40831 -15.14593,11.03594 -22.52735,16.76366 -0.73104,0.5678 -1.44135,1.1649 -2.1582,1.7539 0.0568,0.036 0.10728,0.07 0.16406,0.10547 4.24432,2.484101 0.78056,1.881901 3.44922,5.246101 1.88794,2.3776 5.15198,7.88434 8.58008,10.65235 7.68661,-5.34441 15.49346,-10.55402 23.22266,-15.820321 7.09041,-4.8263 14.3087,-9.47375 21.61914,-14.00196 17.60894,-9.61714 35.38809,-18.95748 53.31641,-28.11327 8.88609,-4.53532 18.30488,-8.47513 27.07031,-13.23047 2.24991,-1.83825 4.84084,-3.06579 6.32422,-5.59961 0.0497,-0.24841 0.0781,-0.50497 0.0781,-0.76758 0.11356,-0.0213 0.2341,-0.0412 0.34766,-0.0625 0.22712,-0.51102 0.41787,-1.07268 0.55273,-1.69726 1.43369,-6.66457 -1.75258,-15.50801 -3.48437,-21.888685 -2.74674,-10.1281505 -7.62942,-25.66449 -18.45313,-28.964842 -2.04409,-0.62458 -5.66352,0.716272 -7.77148,0.730472 -5.04634,0.0426 -10.09357,0.0788 -15.13281,-0.0703 -8.25441,-0.23422 -16.10276,-2.207332 -24.25782,-3.179692 -2.27119,-0.2697 -6.43844,-1.14958 -8.63867,0.0996 -0.99365,0.5607 -4.31623,4.265722 -5.38086,4.130862 -0.35487,0.23422 -1.78067,0.33979 -3.30664,0.26172 -0.0994,0.58909 -0.48933,1.11429 -1.25586,1.29883 -4.54241,1.10721 -5.74254,-3.839992 -9.17773,-5.373052 -2.12216,-0.94397 -0.28375,-4.05992 1.82421,-3.12305 1.49048,0.66717 2.6124,1.85397 3.66993,3.06055 0.64587,0.73814 1.58191,2.22726 2.72461,1.94336 0.47553,-0.11356 0.89564,-0.0414 1.23632,0.12891 2.83901,-2.40605 -1.63978,-9.12085 -4.36523,-10.61133 -2.81328,-1.53706 -4.90077,-2.02353 -6.86133,-1.97266 z m 50.2754,17.998052 c 1.97169,0 3.70869,0.25391 5.21093,0.7617195 1.51566,0.50781 2.77724,1.28906 3.78321,2.34375 1.01938,1.05469 1.78326,2.38932 2.29297,4.00391 0.52309,1.60156 0.78515,3.49609004 0.78515,5.68359 0,2.09635 -0.26817,3.97135 -0.80469,5.625 -0.53651,1.65365 -1.33491,3.0599005 -2.39453,4.2187505 -1.05962,1.14583 -2.37405,2.02474 -3.94336,2.63672 -1.55589,0.59896 -3.35993,0.89844 -5.41211,0.89844 -2.02535,0 -3.79488,-0.25391 -5.31054,-0.76172 -1.50225,-0.52084 -2.75771,-1.3086 -3.76368,-2.36328 -1.00596,-1.05469 -1.76374,-2.39584 -2.27343,-4.0234405 -0.49628,-1.62761 -0.74414,-3.55469 -0.74414,-5.78125 0,-2.04426996 0.26817,-3.88021 0.80468,-5.50781 0.53652,-1.64063 1.33492,-3.03386 2.39454,-4.17969 1.05962,-1.14584 2.36793,-2.02474 3.92382,-2.63672 1.56931,-0.6119795 3.38559,-0.9179695 5.45118,-0.9179695 z m -78.98829,0.33203 c 0.50969,0 0.93226,0.0195 1.26758,0.0586 0.33532,0.026 0.60349,0.0716 0.80469,0.13672 0.2146,0.0651 0.36288,0.1497395 0.44336,0.2539095 0.0939,0.0911 0.14062,0.20182 0.14062,0.33203 l 0,16.60156 c 1.84369,-0.58202 3.69168,-1.14405 5.54688,-1.68164 l 5.25781,-14.68555 c 0.0805,-0.22135 0.17395,-0.39713 0.28125,-0.52734 0.1073,-0.14323 0.27393,-0.2473995 0.50195,-0.3124995 0.24143,-0.0781 0.57053,-0.1237 0.98633,-0.13672 0.4158,-0.026 0.96633,-0.0391 1.65039,-0.0391 0.79136,0 1.42117,0.013 1.89063,0.0391 0.46945,0.013 0.83109,0.0586 1.08593,0.13672 0.26826,0.0651 0.45715,0.1692695 0.56446,0.3124995 0.12071,0.14323 0.2203,0.33854 0.30078,0.58594 l 3.74804,10.43164 c 1.17175,-0.27163996 2.3413,-0.55307996 3.51563,-0.81445996 -1.12937,0.38973 -2.25591,0.78649996 -3.38477,1.17773996 l 4.16993,11.6074205 c 0.16095,0.46875 0.26054,0.83984 0.30078,1.11328 0.0402,0.27344 -0.0126,0.48177 -0.16016,0.625 -0.14754,0.13021 -0.40959,0.20834 -0.78516,0.23438 -0.37556,0.0391 -0.89159,0.0586 -1.54882,0.0586 -0.68406,0 -1.2204,-0.013 -1.60938,-0.0391 -0.37556,-0.013 -0.66404,-0.0456 -0.86523,-0.0977 -0.2012,-0.0651 -0.3414,-0.14974 -0.42188,-0.25391 -0.0805,-0.10417 -0.14752,-0.24088 -0.20117,-0.41016 l -1.75195,-5.0781205 -9.77735,0 -1.65039,4.9414105 c -0.0537,0.18229 -0.12681,0.33854 -0.2207,0.46875 -0.0805,0.11718 -0.22068,0.21484 -0.42188,0.29296 -0.18778,0.0651 -0.46402,0.11068 -0.82617,0.13672 -0.34873,0.026 -0.80996,0.0391 -1.38672,0.0391 -0.61699,0 -1.10048,-0.0195 -1.44922,-0.0586 -0.34873,-0.0391 -0.59048,-0.13021 -0.7246,-0.27343 -0.13413,-0.15625 -0.18087,-0.3711 -0.14063,-0.64454 0.0402,-0.27343 0.14178,-0.63802 0.30273,-1.09375 l 2,-5.5878905 c -1.61333,0.56461 -3.22669,1.12737 -4.83984,1.69141 -0.0526,0.68114 -0.13359,1.3330705 -0.2793,1.9238305 -0.2146,0.91146 -0.59043,1.69271 -1.12695,2.34375 -0.5231,0.63802 -1.21384,1.1263 -2.07226,1.46484 -0.85843,0.33854 -1.91888,0.50781 -3.17969,0.50781 -0.40239,0 -0.80465,-0.0326 -1.20703,-0.0977 -0.38898,-0.0521 -0.75062,-0.12369 -1.08594,-0.21484 -0.32191,-0.0911 -0.60427,-0.1888 -0.8457,-0.29297 -0.24144,-0.10417 -0.40195,-0.19531 -0.48243,-0.27344 -0.0805,-0.0912 -0.14752,-0.18229 -0.20117,-0.27343 -0.0537,-0.0911 -0.10038,-0.20834 -0.14062,-0.35157 -0.0402,-0.15625 -0.0667,-0.34505 -0.0801,-0.5664 -0.007,-0.11582 -0.006,-0.29155 -0.01,-0.43946 -12.21381,4.232155 -24.47241,8.351075 -36.68161,12.601585 12.04178,-5.47665 24.299,-10.511255 36.82422,-14.921885 0.0478,-0.13132 0.10225,-0.23394 0.16797,-0.28711 0.0939,-0.0781 0.20962,-0.11718 0.34375,-0.11718 0.10052,0 0.21729,0.0403 0.3457,0.10351 1.46588,-0.5122705 2.93473,-1.0172805 4.40821,-1.5117205 0.0327,-0.2949 0.0547,-0.6176 0.0547,-0.99414 l 0,-17.36328 c 0,-0.13021 0.0387,-0.24088 0.11914,-0.33203 0.0939,-0.10417 0.23604,-0.1887995 0.42382,-0.2539095 0.2012,-0.0651 0.47549,-0.11067 0.82422,-0.13671 0.34874,-0.0391 0.77742,-0.0586 1.28711,-0.0586 z m 31.48828,0 c 0.63041,0 1.12613,0.013 1.48828,0.0391 0.37556,0.013 0.65597,0.0586 0.84375,0.13672 0.18778,0.0651 0.31575,0.1692695 0.38282,0.3124995 0.0671,0.13021 0.12187,0.31901 0.16211,0.56641 l 4.5664,19.3554705 0.0195,0 4.74805,-19.2187505 c 0.0537,-0.2474 0.12069,-0.44922 0.20117,-0.60547 0.0939,-0.15625 0.24217,-0.2734395 0.44336,-0.3515695 0.21461,-0.0912 0.50309,-0.14974 0.86523,-0.17578 0.36215,-0.0391 0.84564,-0.0586 1.44922,-0.0586 0.64382,0 1.15179,0.013 1.52735,0.0391 0.38897,0.026 0.68552,0.0846 0.88672,0.17578 0.2146,0.0781 0.369,0.1953195 0.46289,0.3515695 0.0939,0.15625 0.16705,0.36458 0.2207,0.625 l 4.90821,19.2187505 0.041,0 4.56641,-19.2968805 c 0.0402,-0.20833 0.095,-0.38411 0.16211,-0.52734 0.0671,-0.15625 0.19503,-0.2734395 0.38281,-0.3515595 0.18778,-0.0911 0.45595,-0.14974 0.80469,-0.17579 0.34873,-0.0391 0.83834,-0.0586 1.46875,-0.0586 0.59017,0 1.04528,0.0195 1.36719,0.0586 0.33532,0.026 0.57707,0.11068 0.7246,0.25391 0.14755,0.1432295 0.20847,0.3580695 0.18165,0.6445295 -0.0134,0.27344 -0.0805,0.65104 -0.20118,1.13281 l -5.97656,21.9921905 c -0.0805,0.3125 -0.19425,0.56641 -0.3418,0.76172 -0.13412,0.18229 -0.34137,0.32552 -0.62304,0.42969 -0.28167,0.0912 -0.64527,0.14974 -1.08789,0.17578 -0.44263,0.0391 -1.0054,0.0586 -1.68946,0.0586 -0.76453,0 -1.38211,-0.0195 -1.85156,-0.0586 -0.45603,-0.026 -0.81767,-0.0846 -1.08593,-0.17578 -0.26826,-0.10417 -0.46327,-0.2474 -0.58398,-0.42969 -0.12072,-0.19531 -0.21419,-0.44922 -0.28125,-0.76172 l -4.16407,-16.0156205 -0.041,0 -3.94336,16.0156205 c -0.0671,0.29948 -0.16053,0.54688 -0.28125,0.74219 -0.12071,0.18229 -0.31572,0.32552 -0.58398,0.42969 -0.25485,0.10416 -0.61037,0.16927 -1.06641,0.19531 -0.44262,0.0391 -1.03182,0.0586 -1.76953,0.0586 -0.77795,0 -1.40164,-0.0195 -1.87109,-0.0586 -0.45604,-0.026 -0.81768,-0.0846 -1.08593,-0.17578 -0.26826,-0.10417 -0.46327,-0.2474 -0.58399,-0.42969 -0.12072,-0.19531 -0.22226,-0.44922 -0.30273,-0.76172 l -5.91407,-22.0507805 c -0.12071,-0.46875 -0.18775,-0.83333 -0.20117,-1.09375 -0.0134,-0.27344 0.0598,-0.48177 0.22071,-0.6249995 0.17436,-0.14323 0.44865,-0.22786 0.82421,-0.2539 0.38898,-0.0391 0.92727,-0.0586 1.61133,-0.0586 z m 65.56836,0.11719 6.74024,0 c 0.68406,0 1.24683,0.013 1.68945,0.0391 0.44263,0.026 0.84489,0.0586 1.20703,0.0977 1.04621,0.1432295 1.98481,0.3906195 2.81641,0.7421895 0.84501,0.35156 1.55606,0.8138 2.13281,1.38672 0.59017,0.55989 1.03916,1.23046 1.34766,2.01171 0.3085,0.76823 0.46289,1.65365 0.46289,2.65625 0,0.84636 -0.11378,1.6211 -0.3418,2.32422004 -0.2146,0.69011 -0.53563,1.3086 -0.96484,1.85547 -0.42921,0.54687996 -0.95943,1.02213996 -1.58985,1.42577996 -0.6304,0.40365 -1.34756,0.72917 -2.15234,0.97657 0.38898,0.18229 0.75062,0.40364 1.08594,0.66406 0.34873,0.26041 0.66976,0.57943 0.96484,0.95703 0.3085,0.36458 0.59698,0.78776 0.86524,1.26953 0.26826,0.46875 0.53031,1.0026 0.78515,1.60156 l 2.19336,4.9804705 c 0.2012,0.49479 0.33528,0.85938 0.40235,1.09375 0.0671,0.22136 0.0996,0.39714 0.0996,0.52735 0,0.14322 -0.0264,0.26692 -0.0801,0.37109 -0.0537,0.0911 -0.17967,0.16927 -0.38086,0.23437 -0.2012,0.0651 -0.49775,0.11068 -0.88672,0.13672 -0.38898,0.026 -0.9192,0.0391 -1.58984,0.0391 -0.56335,0 -1.01234,-0.013 -1.34766,-0.0391 -0.33532,-0.026 -0.60349,-0.0716 -0.80469,-0.13672 -0.18778,-0.0781 -0.32186,-0.16927 -0.40234,-0.27343 -0.0805,-0.11719 -0.14752,-0.25391 -0.20117,-0.41016 l -2.33399,-5.6445305 c -0.28167,-0.63802 -0.55596,-1.20443 -0.82422,-1.69922 -0.26826,-0.49479 -0.57092,-0.90495 -0.90625,-1.23047 -0.32191,-0.33854 -0.69578,-0.59245 -1.125,-0.76172 -0.42921,-0.16927 -0.92689,-0.2539 -1.49023,-0.2539 l -1.64844,0 0,9.6289005 c 0,0.13021 -0.0487,0.2474 -0.14258,0.35157 -0.0805,0.10416 -0.22068,0.1888 -0.42187,0.2539 -0.2012,0.0651 -0.46937,0.11719 -0.80469,0.15625 -0.33532,0.0391 -0.76401,0.0586 -1.28711,0.0586 -0.50969,0 -0.93837,-0.0195 -1.28711,-0.0586 -0.33532,-0.0391 -0.60349,-0.0912 -0.80469,-0.15625 -0.20119,-0.0651 -0.34335,-0.14974 -0.42382,-0.2539 -0.0805,-0.10417 -0.1211,-0.22136 -0.1211,-0.35157 l 0,-22.9492205 c 0,-0.57291 0.14828,-0.98307 0.44336,-1.23046 0.3085,-0.2604195 0.68433,-0.3906295 1.12695,-0.3906295 z m -18.24804,3.7695295 c -1.30105,0 -2.38793,0.24089 -3.25977,0.72266 -0.87184,0.46875 -1.57676,1.10026 -2.11328,1.89453 -0.53652,0.79427 -0.91846,1.72526 -1.14648,2.79297 -0.21461,1.05468004 -0.32227,2.17448 -0.32227,3.35937 0,1.38021 0.10766,2.6237 0.32227,3.73047 0.2146,1.09375 0.57624,2.03125 1.08593,2.8125 0.50969,0.78125 1.19431,1.3802105 2.05274,1.7968805 0.85843,0.40364 1.93918,0.60546 3.24023,0.60546 1.30106,0 2.38598,-0.23437 3.25782,-0.70312 0.87183,-0.46875 1.57676,-1.1067705 2.11328,-1.9140605 0.53651,-0.80729 0.91234,-1.7448 1.12695,-2.8125 0.22802,-1.08073 0.3418,-2.22657 0.3418,-3.4375 0,-1.32813 -0.10766,-2.53255996 -0.32227,-3.61328 -0.21461,-1.09375 -0.58236,-2.02474 -1.10547,-2.79297 -0.50969,-0.78125 -1.19431,-1.38021 -2.05273,-1.79688 -0.85843,-0.42969 -1.93111,-0.64453 -3.21875,-0.64453 z m 21.9707,0.15625 0,7.16797004 2.69531,0 c 0.75113,0 1.40736,-0.0846 1.97071,-0.25391 0.56334,-0.18229 1.03459,-0.42968 1.41015,-0.74218 0.37556,-0.32553 0.65597,-0.70964 0.84375,-1.15235004 0.18778,-0.44271 0.28125,-0.9375 0.28125,-1.48437 0,-0.83334 -0.19305,-1.53646 -0.58203,-2.10938 -0.38897,-0.57291 -1.02686,-0.97656 -1.91211,-1.21094 -0.26826,-0.0651 -0.57704,-0.11718 -0.92578,-0.15625 -0.33532,-0.0391 -0.80462,-0.0586 -1.4082,-0.0586 l -2.37305,0 z m -83.97852,0.89844 -3.17187,9.25586 c 1.94477,-0.52037 3.89516,-1.0155 5.84961,-1.49805 l -2.65821,-7.75781 -0.0195,0 z m 2.97071,8.60937 c -2.04238,0.71124 -4.08565,1.41928 -6.12696,2.13282 l 6.85742,0 -0.73046,-2.13282 z M 395.74861,20.506589 c 1.21286,0 2.14028,0.40224 2.78125,1.20704 0.64098,0.80479 0.96094,1.93511 0.96094,3.38867 0,1.45355 -0.33613,2.60687 -1.00781,3.46094 -0.66784,0.85406 -1.61756,1.28125 -2.84961,1.28125 -1.13226,0 -2.00099,-0.42368 -2.60742,-1.26954 -0.6026,-0.84585 -0.9043,-2.00267 -0.9043,-3.47265 0,-1.28521 0.32805,-2.37285 0.98437,-3.25977 0.66017,-0.89102 1.54103,-1.33594 2.64258,-1.33594 z m 36.67383,0 1.49805,0 0,2.51954 c 0,0.82121 -0.14984,2.2575 -0.44922,4.31054 l -0.59961,0 c -0.29938,-2.05304 -0.44922,-3.48757 -0.44922,-4.30468 l 0,-2.5254 z m 57.16993,0 c 1.21286,0 2.14027,0.40224 2.78125,1.20704 0.64097,0.80479 0.96093,1.93511 0.96093,3.38867 0,1.45355 -0.33613,2.60687 -1.00781,3.46094 -0.66784,0.85406 -1.61756,1.28125 -2.84961,1.28125 -1.13226,0 -2.00099,-0.42368 -2.60742,-1.26954 -0.60259,-0.84585 -0.9043,-2.00267 -0.9043,-3.47265 0,-1.28521 0.32805,-2.37285 0.98438,-3.25977 0.66016,-0.89102 1.54102,-1.33594 2.64258,-1.33594 z m -39.67383,0.006 c 0.97489,0 1.69169,0.19586 2.14844,0.58594 l -0.45508,1.37891 c -0.52583,-0.4024 -1.08066,-0.60352 -1.66407,-0.60352 -0.34543,0 -0.61473,0.0998 -0.80664,0.29688 -0.18807,0.19298 -0.28125,0.44379 -0.28125,0.75586 0,0.51736 0.53462,1.0568 1.60547,1.61523 0.56421,0.29564 0.97122,0.56789 1.22071,0.81836 0.24948,0.24637 0.43981,0.53655 0.57031,0.86914 0.1305,0.32849 0.19531,0.69506 0.19531,1.10156 0,0.73089 -0.26936,1.33249 -0.81055,1.80469 -0.53734,0.4722 -1.2602,0.70899 -2.16601,0.70899 -0.78683,0 -1.49561,-0.2171 -2.12891,-0.65235 l 0.55274,-1.43554 c 0.59107,0.44345 1.17225,0.66406 1.74414,0.66406 0.87894,0 1.31836,-0.3274 1.31836,-0.98438 0,-0.30795 -0.10329,-0.60164 -0.31055,-0.88086 -0.20726,-0.27921 -0.63651,-0.59063 -1.28516,-0.93554 -0.64481,-0.34902 -1.08019,-0.6357 -1.30664,-0.85743 -0.22261,-0.22583 -0.39475,-0.49282 -0.51758,-0.80078 -0.11898,-0.30795 -0.17968,-0.64783 -0.17968,-1.02148 0,-0.69804 0.23891,-1.27645 0.71484,-1.73633 0.47977,-0.45988 1.09335,-0.69141 1.8418,-0.69141 z m 25.1875,0 c 0.925,0 1.71267,0.29545 2.36133,0.88672 l -0.62696,1.28711 c -0.17655,-0.16835 -0.44989,-0.3338 -0.81836,-0.49804 -0.36846,-0.16835 -0.68438,-0.25196 -0.94922,-0.25196 -0.82904,0 -1.48311,0.3007 -1.96289,0.9043 -0.47977,0.59949 -0.7207,1.40396 -0.7207,2.41406 0,0.96083 0.23487,1.72984 0.70313,2.30469 0.47209,0.57485 1.11202,0.86133 1.92187,0.86133 0.53351,0 0.97292,-0.15474 1.31836,-0.4668 l 0,-1.77344 -1.16797,0 0,-1.36914 2.66602,0 0,4.04102 c -0.35695,0.31206 -0.8186,0.55586 -1.38282,0.73242 -0.56037,0.17246 -1.11924,0.25977 -1.67578,0.25977 -1.20902,0 -2.16689,-0.42368 -2.87695,-1.26954 -0.70622,-0.84996 -1.06055,-1.97131 -1.06055,-3.36328 0,-1.39196 0.38673,-2.52208 1.15821,-3.39257 0.77147,-0.8705 1.8083,-1.30665 3.11328,-1.30665 z m -48.15821,0.0312 0.65625,0 3.39063,9.14649 -1.65235,0 -0.61523,-1.83008 -2.89063,0 -0.58789,1.83008 -1.66406,0 3.36328,-9.14649 z m 35.87305,0.0312 c 2.1417,0 3.21289,0.88633 3.21289,2.66016 0,0.53379 -0.14782,1.02159 -0.44336,1.46094 -0.29554,0.43935 -0.66812,0.74902 -1.11719,0.92969 l 2.49219,4.06445 -1.72656,0 -2.25,-3.72656 c -0.22645,-0.004 -0.54433,-0.0183 -0.95117,-0.043 l 0,3.76953 -1.55469,0 0,-9.02344 c 0.0844,0 0.40845,-0.0142 0.97266,-0.043 0.56421,-0.0328 1.0198,-0.0488 1.36523,-0.0488 z m 18.67578,0 c 2.1417,0 3.21289,0.88633 3.21289,2.66016 0,0.53379 -0.14782,1.02159 -0.44336,1.46094 -0.29554,0.43935 -0.66812,0.74902 -1.11718,0.92969 l 2.49414,4.06445 -1.72852,0 -2.25,-3.72656 c -0.22645,-0.004 -0.54237,-0.0183 -0.94922,-0.043 l 0,3.76953 -1.55469,0 0,-9.02344 c 0.0844,0 0.40845,-0.0142 0.97266,-0.043 0.56421,-0.0328 1.01785,-0.0488 1.36328,-0.0488 z m 22.90235,0.0312 c 1.33184,0 2.30581,0.21886 2.91992,0.65821 0.61794,0.43524 0.92773,1.11694 0.92773,2.04492 0,2.06947 -1.14004,3.10352 -3.41992,3.10352 -0.16888,0 -0.39566,-0.0142 -0.67969,-0.043 l 0,3.32031 -1.49804,0 0,-9.01758 c 0.99792,-0.0452 1.58112,-0.0664 1.75,-0.0664 z m -115.01759,0.0605 1.4961,0 0,5.61133 c 0,1.19898 -0.23696,2.08706 -0.71289,2.66602 -0.47594,0.57896 -1.23936,0.86914 -2.29102,0.86914 -0.69855,0 -1.26348,-0.19586 -1.69336,-0.58594 -0.42987,-0.39008 -0.66676,-0.93107 -0.70898,-1.625 l 1.33594,0 c 0.12666,0.52558 0.53771,0.78906 1.23242,0.78906 0.49128,0 0.83752,-0.17091 1.03711,-0.51171 0.20342,-0.34081 0.30468,-0.85881 0.30468,-1.55274 l 0,-5.66016 z m 20.67383,0 0.79492,0 1.82422,6.08008 1.78516,-6.08008 0.78906,0 1.72071,9.0293 -1.44922,0 -0.875,-4.86523 -1.69922,4.98242 -0.53516,0 -1.69922,-4.98242 -0.9082,4.86523 -1.44531,0 1.69726,-9.0293 z m 7.84766,0 1.49609,0 0,7.60157 3.8125,0 0,1.42187 -5.30859,0 0,-9.02344 z m 21.85351,0 1.49805,0 0,6.11719 c 0,0.48452 0.13772,0.87779 0.41406,1.18164 0.27635,0.30385 0.65702,0.45508 1.14063,0.45508 0.54118,0 0.96039,-0.14772 1.25976,-0.44336 0.30322,-0.29974 0.45508,-0.70724 0.45508,-1.22461 l 0,-6.08594 1.49805,0 0,6.20899 c 0,0.92798 -0.2916,1.65411 -0.875,2.17969 -0.57956,0.52558 -1.35511,0.78906 -2.32617,0.78906 -0.97874,0 -1.73603,-0.25627 -2.26953,-0.76953 -0.52967,-0.51326 -0.79493,-1.24836 -0.79493,-2.20508 l 0,-6.20313 z m 14.0254,0 5.38281,0 0,1.42383 -3.88476,0 0,2.11133 2.78515,0 0,1.36133 -2.78515,0 0,2.70508 3.82226,0 0,1.42187 -5.32031,0 0,-9.02344 z m 40.87695,0 1.4961,0 0,6.11719 c 0,0.48452 0.13966,0.87779 0.41601,1.18164 0.27635,0.30385 0.65506,0.45508 1.13867,0.45508 0.54119,0 0.96234,-0.14772 1.26172,-0.44336 0.30322,-0.29974 0.45508,-0.70724 0.45508,-1.22461 l 0,-6.08594 1.49609,0 0,6.20899 c 0,0.92798 -0.29159,1.65411 -0.875,2.17969 -0.57956,0.52558 -1.35511,0.78906 -2.32617,0.78906 -0.97873,0 -1.73407,-0.25627 -2.26758,-0.76953 -0.52966,-0.51326 -0.79492,-1.24836 -0.79492,-2.20508 l 0,-6.20313 z m -98.91016,1.26368 c -0.66784,0 -1.18016,0.28647 -1.53711,0.86132 -0.35695,0.57075 -0.53515,1.34151 -0.53515,2.31055 0,1.05527 0.16608,1.87221 0.5,2.45117 0.33392,0.57896 0.81989,0.86719 1.45703,0.86719 0.74844,0 1.31944,-0.28297 1.71094,-0.84961 0.39533,-0.56664 0.59179,-1.38885 0.59179,-2.46875 0,-2.11464 -0.72899,-3.17187 -2.1875,-3.17187 z m 8.29102,0 c -0.66784,0 -1.18016,0.28647 -1.53711,0.86132 -0.35695,0.57075 -0.53516,1.34151 -0.53516,2.31055 0,1.05527 0.16608,1.87221 0.5,2.45117 0.33392,0.57896 0.8199,0.86719 1.45703,0.86719 0.74845,0 1.31749,-0.28297 1.70899,-0.84961 0.39533,-0.56664 0.59375,-1.38885 0.59375,-2.46875 0,-2.11464 -0.729,-3.17187 -2.1875,-3.17187 z m 85.55274,0 c -0.66785,0 -1.18016,0.28647 -1.53711,0.86132 -0.35695,0.57075 -0.53516,1.34151 -0.53516,2.31055 0,1.05527 0.16608,1.87221 0.5,2.45117 0.33392,0.57896 0.81989,0.86719 1.45703,0.86719 0.74844,0 1.31749,-0.28297 1.70899,-0.84961 0.39533,-0.56664 0.59375,-1.38885 0.59375,-2.46875 0,-2.11464 -0.729,-3.17187 -2.1875,-3.17187 z m -27.04688,0.0918 c -0.1612,0 -0.33126,0.0125 -0.50781,0.0371 l 0,2.50586 c 0.27635,0.0246 0.48696,0.0371 0.63281,0.0371 0.62562,0 1.08323,-0.0943 1.37109,-0.28321 0.29171,-0.18888 0.4375,-0.55545 0.4375,-1.10156 0,-0.44346 -0.1559,-0.75312 -0.46679,-0.92969 -0.31089,-0.17656 -0.79896,-0.26562 -1.4668,-0.26562 z m 18.67578,0 c -0.1612,0 -0.3293,0.0125 -0.50586,0.0371 l 0,2.50586 c 0.27635,0.0246 0.48696,0.0371 0.63281,0.0371 0.62563,0 1.08128,-0.0943 1.36915,-0.28321 0.2917,-0.18888 0.4375,-0.55545 0.4375,-1.10156 0,-0.44346 -0.15396,-0.75312 -0.46485,-0.92969 -0.31089,-0.17656 -0.80091,-0.26562 -1.46875,-0.26562 z m 23.38086,0.006 c -0.15736,0 -0.30923,0.0107 -0.45508,0.0312 l 0,2.88867 c 0.25332,0.0287 0.45181,0.043 0.59766,0.043 0.68319,0 1.18332,-0.12102 1.49805,-0.36328 0.31473,-0.24637 0.4707,-0.6451 0.4707,-1.19532 0,-0.93618 -0.70272,-1.40429 -2.11133,-1.40429 z m -77.32617,1.27539 -1.01368,3.33203 2.02735,0 -1.01367,-3.33203 z m 5.9414,4.49023 c 0.261,0 0.48172,0.0978 0.66211,0.29492 0.18423,0.1971 0.27539,0.43563 0.27539,0.71485 0,0.27921 -0.0912,0.51775 -0.27539,0.71484 -0.18039,0.19709 -0.40111,0.29492 -0.66211,0.29492 -0.26099,0 -0.48373,-0.0978 -0.66797,-0.29492 -0.18423,-0.19709 -0.27734,-0.43563 -0.27734,-0.71484 0,-0.27922 0.0931,-0.51775 0.27734,-0.71485 0.18424,-0.19709 0.40698,-0.29492 0.66797,-0.29492 z"
       style="fill:#76bc21;fill-opacity:1"
       inkscape:connector-curvature="0" /><path
       style="fill:#f5333f;fill-opacity:1"
       id="path11376-8"
       d="m 525.45071,91.098089 c 0.0923,-0.13486 0.29099,-0.14905 0.43294,-0.22712 -0.0284,-0.48264 -0.071,-0.93688 -0.14195,-1.29885 -1.10011,-5.58574 -3.46358,-10.88049 -4.82631,-16.40946 -0.0994,-0.40455 -0.22712,-0.81621 -0.34777,-1.23496 -17.03404,9.88684 -30.70385,17.27535 -45.97061,25.72846 -14.94027,8.275701 -26.18273,14.471901 -43.93362,24.209701 -1.98731,1.093 -3.49908,2.8815 -5.20958,4.3649 2.09377,3.5843 4.31529,7.0408 9.95072,7.2466 2.66157,0.099 3.75458,-3.0094 5.50057,-0.8659 1.00075,1.5402 4.11656,4.5637 6.82072,6.0826 0.46134,-0.3833 0.81621,-0.944 1.37692,-1.1498 22.28619,-8.1906 70.56349,-38.333701 76.34797,-46.446171 z"
       class="st1"
       inkscape:connector-curvature="0" /><path
       style="fill:#3a8dde;fill-opacity:1"
       id="path11378-8"
       d="m 507.28107,141.02906 c -0.27681,-4.5424 -4.47853,-9.3119 -5.07473,-14.3369 3.712,-3.2649 5.17409,-8.1977 7.97761,-12.1297 1.29885,-1.8241 2.71835,-4.2798 4.33658,-6.3168 -11.1431,6.1465 -22.17973,12.4491 -33.01054,19.0852 -5.03214,3.0804 -9.97911,6.2742 -14.94737,9.4397 0.68846,0.2626 1.51177,0.4969 2.55511,0.6459 1.84535,0.22 3.47068,-0.2626 4.89019,-1.455 3.35002,-2.7112 1.74598,-1.0149 5.57864,-0.7665 1.85955,0.1206 3.70491,-0.8872 5.34443,0.2271 2.18604,1.4976 14.61379,10.6534 19.94402,9.6952 0.51102,-0.2555 1.02914,-0.5181 1.54016,-0.7736 0.62458,-0.653 0.96526,-1.7105 0.8659,-3.3146 z"
       class="st2"
       inkscape:connector-curvature="0" /><path
       style="fill:#f5b335;fill-opacity:1"
       id="path11380-3"
       d="m 517.28856,59.379289 c 0,-0.42585 -0.007,-0.8446 -0.007,-1.24207 l -0.007,0 c -0.0781,-3.81846 0.48263,-11.21408 -1.32724,-13.7195 -0.0142,0 -7.50917,5.11021 -7.52336,5.11731 -19.26266,9.63133 -30.2993,15.77778 -47.85855,24.68516 -17.76508,9.00675 -27.04863,15.04674 -51.6841,28.084871 -6.89169,3.9462 -13.67692,8.0415 -20.36987,12.2645 0.91558,0.6601 1.83825,1.1285 2.74674,1.2492 3.76168,0.5181 7.97051,-5.0109 8.65187,-7.9918 1.61113,0.7381 3.30034,1.2065 5.06762,1.3982 -0.24131,1.6466 0.26971,3.2861 1.34143,4.5495 3.00225,3.5275 7.97051,3.5558 12.02319,4.9824 0.5678,0.1988 1.07882,0.4543 1.55436,0.7311 33.10281,-17.0411 66.39016,-33.855161 99.78397,-50.378181 -1.13561,-3.23646 -2.37767,-6.62908 -2.39187,-9.73069 z m -58.2635,28.8443 c 2.59769,-1.4266 5.19538,-2.82481 7.80017,-4.20173 2.0086,-0.95106 4.003,-1.92342 6.0116,-2.86739 0.007,0 0.0142,-0.007 0.0213,-0.007 -4.59919,2.37767 -9.21258,4.74114 -13.83306,7.07622 z"
       class="st3"
       inkscape:connector-curvature="0" /></g></svg>