<?xml version="1.0" encoding="UTF-8"?>
<svg width="196" height="196" version="1.1" viewBox="0 0 196 196" xmlns="http://www.w3.org/2000/svg"><path d="m171.6 148.36c-20.491 17.363-50.07 18.42-74.891 11.301-22.445-6.4913-43.949-19.649-56.506-39.794-12.471-4.8674-25.095-9.3303-37.566-14.198 11.116-3.3001 22.231-6.6002 33.347-9.9004-1.8132-20.494 10.176-40.021 27.193-50.722 25.406-16.279 57.266-21.366 86.827-16.5 15.062 2.8238 32.468 9.4647 38.105 25.115 7.935 23.052 6.3651 48.816-1.3475 71.713-3.2131 8.6261-7.6957 17.29-15.162 22.984z" fill="#00b2e8" stroke-linecap="round" stroke-linejoin="round" stroke-width="1.7976" style="paint-order:fill markers stroke"/><path d="m128.41 64.266c-10.77-0.35822-21.544 6.3046-25.162 16.613-4.3331 11.684-1.7574 26.895 8.8753 34.367 8.043 5.5786 19.101 5.968 27.952 2.1604 2.3982-1.5093 7.9967-4.163 6.9124-6.974-2.0106-1.7401-3.3907-4.5138-6.0343-5.2484-3.6554 1.6708-7.0079 4.9054-11.517 4.2838-7.0334 0.63982-13.324-4.9353-14.619-11.679-1.6678-7.6128-0.42306-17.597 7.1359-21.643 5.501-2.7803 12.264-1.4439 17.059 2.1567 3.2281 1.3561 4.6028-2.5305 6.3185-4.4513 2.4823-1.9088 1.1907-3.6509-1.2762-4.9144-4.5205-3.2085-10.144-4.6577-15.644-4.6715zm-71.605 0.59766v54.395h12.619v-18.182c7.9516 0.0323 16.798 0.56477 23.146-5.1523 7.7128-7.1417 7.1975-21.988-2.1239-27.591-7.7629-4.7672-17.099-3.184-25.743-3.4699h-7.8983zm106.33 0c-0.0696 12.506 0.1427 25.02-0.11261 37.52 0.41825 5.605-5.3148 8.8309-10.23 7.0374-3.4609-0.78936-3.6145 3.1196-3.7085 5.5082 0.20267 1.6001-1.5209 4.6336 1.2923 4.3058 7.4028 1.4123 16.45 0.89702 21.344-5.6671 5.2676-6.9314 3.8108-15.887 4.0318-23.999v-24.705h-12.617zm-93.707 9.4453c4.7732 0.26998 10.495-1.1503 14.092 2.8838 3.406 4.4183 1.9296 12.955-4.2144 14.034-3.2571 0.58471-6.586 0.23496-9.8779 0.33061v-17.248z" fill="#fff"/></svg>
