<?xml version="1.0" encoding="UTF-8"?>
<svg width="196" height="196" version="1.1" viewBox="0 0 196 196" xmlns="http://www.w3.org/2000/svg"><path d="m127.54 26.785c-22.622 0.14098-45.307 6.0547-64.361 18.264-17.017 10.7-29.007 30.229-27.193 50.723-11.116 3.3001-22.232 6.5983-33.348 9.8984 12.471 4.8674 25.096 9.3318 37.566 14.199 12.557 20.145 34.061 33.302 56.506 39.793 24.821 7.1187 54.401 6.0626 74.893-11.301 7.4659-5.6944 11.947-14.358 15.16-22.984 7.7127-22.898 9.2826-48.661 1.3477-71.713-5.6371-15.65-23.044-22.291-38.105-25.115-7.3901-1.2166-14.924-1.8107-22.465-1.7637zm0.86523 37.48c2.0409 0 3.958 0.18721 5.75 0.56055 1.8169 0.34844 3.5082 0.84703 5.0762 1.4941 1.568 0.62222 3.011 1.3813 4.3301 2.2773 1.3191 0.896 2.4893 1.8648 3.5098 2.9102l-4.2559 5.7129c-0.27377 0.34844-0.59737 0.67204-0.9707 0.9707-0.37334 0.27378-0.89636 0.41016-1.5684 0.41016-0.448 1e-6 -0.87131-0.099716-1.2695-0.29883-0.39822-0.19911-0.81958-0.43521-1.2676-0.70898-0.448-0.29867-0.94658-0.61004-1.4941-0.93359-0.52267-0.34844-1.1576-0.65981-1.9043-0.93359-0.72177-0.29866-1.5806-0.54698-2.5762-0.74609-0.97067-0.19911-2.1145-0.29883-3.4336-0.29883-2.0907 0-4.0078 0.38665-5.75 1.1582-1.7173 0.77156-3.2111 1.9032-4.4805 3.3965-1.2444 1.4684-2.2152 3.2858-2.9121 5.4512-0.672 2.1404-1.0078 4.5928-1.0078 7.3555 0 2.7876 0.37443 5.2624 1.1211 7.4277 0.77156 2.1653 1.8034 3.9949 3.0976 5.4883 1.3191 1.4684 2.8496 2.5898 4.5918 3.3613 1.7422 0.77156 3.6085 1.1562 5.5996 1.1562 1.1449 0 2.1909-0.04888 3.1367-0.14844 0.94578-0.12444 1.8291-0.31165 2.6504-0.56054 0.82133-0.27378 1.5927-0.62181 2.3144-1.0449 0.72178-0.448 1.4565-1.0077 2.2031-1.6797 0.29866-0.24889 0.62225-0.44832 0.9707-0.59766 0.34845-0.17422 0.7087-0.26172 1.082-0.26172 0.29867 0 0.59782 0.0611 0.89649 0.18555 0.29866 0.09955 0.5856 0.28677 0.85937 0.56055l5.002 5.2637c-2.1902 2.8622-4.9398 5.0276-8.25 6.4961-3.2853 1.4436-7.1806 2.166-11.686 2.166-4.1316 0-7.8397-0.69606-11.125-2.0898-3.2604-1.4186-6.0364-3.3602-8.3262-5.8242-2.2649-2.4889-4.007-5.4257-5.2266-8.8106-1.2196-3.4098-1.8281-7.1057-1.8281-11.088 0-4.0569 0.6594-7.7792 1.9785-11.164 1.3191-3.4098 3.1732-6.3465 5.5625-8.8105 2.3893-2.464 5.2508-4.3792 8.5859-5.748s7.0066-2.0547 11.014-2.0547zm-71.605 0.59766h19.189c3.8329 0 7.1177 0.45997 9.8555 1.3809 2.7627 0.896 5.0278 2.1415 6.7949 3.7344 1.792 1.5929 3.1108 3.4714 3.957 5.6367 0.84622 2.1653 1.2695 4.5058 1.2695 7.0195 0 2.7129-0.43553 5.2019-1.3066 7.4668-0.87111 2.2649-2.2021 4.2045-3.9941 5.8223s-4.0694 2.8877-6.832 3.8086c-2.7378 0.896-5.9859 1.3437-9.7441 1.3437h-6.5703v18.182h-12.619v-54.395zm106.33 0h12.617v34.684c0 3.0364-0.38469 5.7982-1.1562 8.2871-0.74666 2.4889-1.8924 4.6299-3.4355 6.4219-1.5182 1.7671-3.4334 3.147-5.748 4.1426-2.3147 0.97066-5.0417 1.457-8.1777 1.457-1.4187 0-2.825-0.07528-4.2188-0.22461-1.3689-0.14933-2.7996-0.39765-4.293-0.74609l0.67187-7.3555c0.07467-0.64711 0.33716-1.1682 0.78516-1.5664 0.448-0.39822 1.083-0.59766 1.9043-0.59766 0.42312 0 0.94419 0.07333 1.5664 0.22266 0.62222 0.12445 1.3691 0.1875 2.2402 0.1875 1.2196 0 2.2778-0.16081 3.1738-0.48437 0.92089-0.34845 1.68-0.91009 2.2774-1.6816 0.59733-0.79645 1.0451-1.8283 1.3438-3.0977 0.29866-1.2693 0.44922-2.8384 0.44922-4.7051v-34.943zm-93.707 9.4453v17.248h6.5703c3.2853 0 5.6502-0.78356 7.0938-2.3516 1.4436-1.568 2.1641-3.7579 2.1641-6.5703 0-1.2444-0.18526-2.378-0.55859-3.3984s-0.94719-1.8915-1.7188-2.6133c-0.74667-0.74667-1.7033-1.3186-2.873-1.7168-1.1449-0.39822-2.5145-0.59766-4.1074-0.59766h-6.5703z" fill="#00b2e8" stroke-linecap="round" stroke-linejoin="round" stroke-width="1.7976" style="paint-order:fill markers stroke"/></svg>
