<?xml version="1.0" standalone="no"?>
<!DOCTYPE svg PUBLIC "-//W3C//DTD SVG 20010904//EN"
 "http://www.w3.org/TR/2001/REC-SVG-20010904/DTD/svg10.dtd">
<svg version="1.0" xmlns="http://www.w3.org/2000/svg"
 width="700.000000pt" height="700.000000pt" viewBox="0 0 700.000000 700.000000"
 preserveAspectRatio="xMidYMid meet">
<metadata>
Created by potrace 1.14, written by Peter Selinger 2001-2017
</metadata>
<g transform="translate(0.000000,700.000000) scale(0.100000,-0.100000)"
fill="#000000" stroke="none">
<path d="M4507 6044 c-1 -1 -67 -5 -147 -8 -80 -4 -163 -8 -185 -10 -77 -7
-171 -17 -230 -26 -33 -5 -78 -12 -100 -15 -22 -3 -51 -8 -65 -11 -14 -3 -36
-8 -50 -10 -281 -47 -688 -173 -960 -296 -65 -30 -252 -122 -280 -139 -8 -5
-55 -32 -105 -60 -85 -49 -264 -165 -275 -178 -3 -3 -37 -31 -75 -62 -286
-228 -535 -575 -648 -904 -37 -105 -54 -164 -66 -225 -6 -30 -14 -66 -16 -80
-15 -68 -20 -148 -20 -288 l0 -152 -30 -10 c-16 -5 -115 -34 -220 -64 -104
-31 -206 -61 -225 -67 -19 -7 -48 -16 -65 -20 -16 -4 -151 -43 -299 -88 -147
-44 -287 -86 -309 -92 l-41 -11 49 -20 c28 -11 59 -24 70 -28 11 -4 49 -19 85
-34 36 -14 69 -26 73 -26 5 0 23 -7 40 -15 18 -8 166 -64 331 -125 164 -61
387 -144 495 -186 l196 -75 55 -82 c124 -184 360 -447 530 -590 54 -46 308
-237 314 -237 3 0 32 -18 64 -40 135 -89 487 -274 582 -305 3 -1 14 -5 25 -10
192 -78 476 -171 615 -200 8 -2 47 -11 85 -20 39 -9 84 -18 100 -20 17 -3 41
-7 55 -10 14 -3 59 -10 100 -16 41 -5 86 -12 100 -14 126 -20 563 -27 710 -12
542 57 953 216 1329 515 245 194 402 418 540 765 54 136 139 433 175 612 4 17
9 41 12 55 2 14 11 61 19 105 13 75 17 102 30 223 3 26 8 61 10 77 24 182 24
627 0 808 -3 20 -7 52 -9 70 -2 17 -7 55 -11 82 -6 43 -50 272 -60 315 -51
197 -86 302 -136 404 -106 214 -289 393 -540 529 -117 63 -391 172 -485 192
-10 2 -53 13 -95 23 -41 11 -88 23 -105 25 -16 3 -53 10 -81 16 -29 6 -76 13
-105 16 -29 3 -60 8 -68 10 -8 2 -48 7 -89 10 -41 4 -88 8 -105 10 -77 10
-482 25 -489 19z m295 -1363 c158 -33 324 -114 421 -206 32 -30 37 -19 -68
-158 -59 -80 -87 -110 -112 -118 -41 -13 -59 -8 -155 49 -100 57 -189 82 -296
82 -152 0 -262 -45 -357 -145 -134 -141 -184 -372 -140 -650 14 -87 80 -225
138 -286 47 -50 119 -102 157 -114 14 -4 30 -11 35 -15 23 -18 139 -32 227
-27 112 6 208 38 272 91 24 19 56 40 71 46 60 23 74 15 177 -92 54 -57 98
-107 98 -111 0 -13 -91 -106 -139 -141 -111 -81 -235 -131 -386 -154 -56 -9
-311 -8 -365 1 -247 43 -476 189 -597 380 -60 95 -116 231 -139 337 -4 19 -8
37 -9 40 -15 70 -21 275 -10 375 15 138 79 309 161 436 204 311 615 465 1016
380z m-1947 -5 c100 -11 127 -17 195 -38 180 -57 302 -150 373 -286 55 -105
71 -179 69 -324 -2 -242 -113 -434 -308 -535 -145 -75 -274 -101 -524 -102
-96 -1 -176 -3 -178 -5 -1 -2 -3 -148 -3 -325 l0 -321 -224 0 -225 0 0 973 0
972 382 -1 c211 -1 410 -4 443 -8z m3416 5 c8 -1 3 -1348 -5 -1396 -44 -248
-139 -395 -316 -492 -34 -18 -72 -35 -85 -37 -14 -3 -29 -7 -35 -11 -37 -23
-331 -27 -447 -6 l-73 13 5 41 c2 23 7 83 11 132 7 106 25 150 64 163 16 6 30
9 32 6 2 -2 48 -7 101 -10 80 -5 106 -3 145 11 87 32 131 97 149 220 5 33 9
353 8 710 0 500 3 651 12 655 10 4 412 5 434 1z"/>
<path d="M2485 4342 c-3 -3 -5 -142 -5 -309 l0 -304 155 2 c220 1 295 25 353
112 64 94 74 258 23 357 -33 63 -103 114 -186 135 -34 9 -332 15 -340 7z"/>
</g>
</svg>
